<?xml version="1.0" encoding="UTF-8" standalone="no"?>
<!-- Created with Inkscape (http://www.inkscape.org/) -->
<svg xmlns:dc="http://purl.org/dc/elements/1.1/" xmlns:cc="http://creativecommons.org/ns#" xmlns:rdf="http://www.w3.org/1999/02/22-rdf-syntax-ns#" xmlns:svg="http://www.w3.org/2000/svg" xmlns="http://www.w3.org/2000/svg" xmlns:sodipodi="http://sodipodi.sourceforge.net/DTD/sodipodi-0.dtd" xmlns:inkscape="http://www.inkscape.org/namespaces/inkscape" id="svg2" version="1.1" inkscape:version="0.47 r22583" width="149.8765" height="76" sodipodi:docname="lacl_white.svg">
  <metadata id="metadata8">
    <rdf:RDF>
      <cc:Work rdf:about="">
        <dc:format>image/svg+xml</dc:format>
        <dc:type rdf:resource="http://purl.org/dc/dcmitype/StillImage"/>
        <dc:title/>
      </cc:Work>
    </rdf:RDF>
  </metadata>
  <defs id="defs6">
    <inkscape:perspective sodipodi:type="inkscape:persp3d" inkscape:vp_x="0 : 38 : 1" inkscape:vp_y="0 : 1000 : 0" inkscape:vp_z="149.8765 : 38 : 1" inkscape:persp3d-origin="74.938248 : 25.333333 : 1" id="perspective7"/>
    <inkscape:perspective id="perspective3706" inkscape:persp3d-origin="0.5 : 0.33333333 : 1" inkscape:vp_z="1 : 0.5 : 1" inkscape:vp_y="0 : 1000 : 0" inkscape:vp_x="0 : 0.5 : 1" sodipodi:type="inkscape:persp3d"/>
    <inkscape:perspective id="perspective3733" inkscape:persp3d-origin="0.5 : 0.33333333 : 1" inkscape:vp_z="1 : 0.5 : 1" inkscape:vp_y="0 : 1000 : 0" inkscape:vp_x="0 : 0.5 : 1" sodipodi:type="inkscape:persp3d"/>
  </defs>
  <sodipodi:namedview pagecolor="#ffffff" bordercolor="#666666" borderopacity="1" objecttolerance="10" gridtolerance="10" guidetolerance="10" inkscape:pageopacity="0" inkscape:pageshadow="2" inkscape:window-width="1789" inkscape:window-height="1060" id="namedview4" showgrid="false" fit-margin-top="0" fit-margin-left="0" fit-margin-right="0" fit-margin-bottom="0" inkscape:zoom="8.4676037" inkscape:cx="45.175865" inkscape:cy="40.444888" inkscape:window-x="0" inkscape:window-y="0" inkscape:window-maximized="0" inkscape:current-layer="svg2"/>
  <path style="fill:#ffffff;fill-opacity:1" d="M 18.40625 7.78125 C 13.918565 7.8974903 13.157789 9.2618403 16.28125 11.71875 L 18.375 13.375 L 18.375 37.75 C 18.375 53.458811 18.67072 62.725984 19.21875 63.75 C 19.68683 64.624618 21.22308 66.02019 22.625 66.875 C 27.76611 70.009753 32.86119 67.83009 28.46875 64.375 L 26.375 62.75 L 26.1875 35.40625 C 26.1875 35.40625 26.5519 12.659764 25.5 9.59375 C 24.96312 8.0288865 20.5625 7.8125 20.5625 7.8125 C 19.76993 7.7778146 19.047348 7.7646442 18.40625 7.78125 z M 123.15625 7.78125 C 118.66857 7.8974902 117.90779 9.2618394 121.03125 11.71875 L 123.125 13.375 L 123.125 37.75 C 123.125 53.458811 123.42072 62.725984 123.96875 63.75 C 124.43683 64.624618 125.97308 66.02019 127.375 66.875 C 132.51611 70.009753 137.61119 67.83009 133.21875 64.375 L 131.15625 62.75 L 130.9375 35.40625 C 130.9375 35.40625 131.3019 12.659764 130.25 9.59375 C 129.71312 8.0288862 125.3125 7.8125 125.3125 7.8125 C 124.51993 7.7778145 123.79735 7.7646443 123.15625 7.78125 z M 67.78125 24.84375 C 66.073291 24.853663 64.669814 25.123184 64.40625 25.78125 C 63.781745 27.340515 67.6875 29.625 67.6875 29.625 C 67.6875 29.625 67.90625 30.860304 67.90625 47.15625 C 67.90625 62.015796 68.100336 64.475337 69.25 65.625 C 71.043935 67.418935 73.852882 68.40625 77.15625 68.40625 C 80.485023 68.40625 80.927302 66.438984 77.90625 65.0625 L 75.90625 64.15625 L 75.90625 45.625 C 75.90625 32.293765 75.6601 26.8476 74.96875 26.15625 C 74.322021 25.509521 70.627848 24.827228 67.78125 24.84375 z M 56.5625 26.15625 C 47.146152 26.503299 39.788005 32.360844 37.03125 41.84375 C 34.165091 51.70299 39.196969 62.43983 48.71875 66.75 C 51.094333 67.825341 54.020334 68.39466 57.34375 68.40625 C 61.637553 68.42123 62.669632 68.142868 64.34375 66.46875 C 65.42375 65.38875 66.3125 63.701294 66.3125 62.75 C 66.3125 61.265138 66.013672 61.097422 64.125 61.5625 C 58.656239 62.909158 57.263528 62.926472 53.9375 61.65625 C 41.487005 56.901363 40.754628 40.119582 52.75 34 C 56.062573 32.310052 60.317319 31.911893 61.125 33.21875 C 61.396935 33.65875 62.302217 34.03125 63.15625 34.03125 C 64.400473 34.03125 64.71875 33.453649 64.71875 31.1875 C 64.755918 29.388987 63.974817 28.402181 63.21875 27.3125 C 63.027658 27.03709 61.410591 26.276314 58.46875 26.15625 C 57.823527 26.129917 57.190257 26.133113 56.5625 26.15625 z M 107.78125 26.1875 C 104.29719 26.298967 100.23411 27.082183 97.90625 28.28125 C 90.917389 31.881175 86.37406 39.207916 86.34375 46.9375 C 86.305542 56.681337 91.222281 63.915857 100.28125 67.40625 C 101.62184 67.922775 104.96875 68.37278 107.71875 68.40625 C 113.32733 68.47452 115.90625 66.86351 115.90625 63.3125 C 115.90625 60.686476 114.55783 59.994877 112.6875 61.6875 C 111.47763 62.78242 110.36081 62.971752 107.375 62.5625 C 92.419169 60.512576 89.096502 40.642781 102.625 34.09375 C 106.22741 32.349855 110.71196 31.924358 111.53125 33.25 C 111.80318 33.69 112.70847 34.0625 113.5625 34.0625 C 114.84234 34.0625 115.125 33.497585 115.125 30.84375 C 115.125 28.07215 114.80001 27.48706 112.90625 26.75 C 111.72712 26.291078 109.87169 26.12062 107.78125 26.1875 z " id="path3654"/>
</svg>