<?xml version="1.0" standalone="no"?>
<!DOCTYPE svg PUBLIC "-//W3C//DTD SVG 1.1//EN" "http://www.w3.org/Graphics/SVG/1.1/DTD/svg11.dtd">
<svg version="1.1" xmlns="http://www.w3.org/2000/svg" viewBox="0 0 705.1737945787374 661" width="1410.3475891574749" height="1322"><!-- svg-source:excalidraw --><metadata></metadata><defs><style class="style-fonts">
      </style></defs><g stroke-linecap="round" transform="translate(323.67379457873744 333.5) rotate(0 30 30)"><path d="M60 30 C60 31.74, 59.85 33.5, 59.54 35.21 C59.24 36.92, 58.78 38.63, 58.19 40.26 C57.6 41.89, 56.85 43.5, 55.98 45 C55.11 46.5, 54.1 47.95, 52.98 49.28 C51.87 50.61, 50.61 51.87, 49.28 52.98 C47.95 54.1, 46.5 55.11, 45 55.98 C43.5 56.85, 41.89 57.6, 40.26 58.19 C38.63 58.78, 36.92 59.24, 35.21 59.54 C33.5 59.85, 31.74 60, 30 60 C28.26 60, 26.5 59.85, 24.79 59.54 C23.08 59.24, 21.37 58.78, 19.74 58.19 C18.11 57.6, 16.5 56.85, 15 55.98 C13.5 55.11, 12.05 54.1, 10.72 52.98 C9.39 51.87, 8.13 50.61, 7.02 49.28 C5.9 47.95, 4.89 46.5, 4.02 45 C3.15 43.5, 2.4 41.89, 1.81 40.26 C1.22 38.63, 0.76 36.92, 0.46 35.21 C0.15 33.5, 0 31.74, 0 30 C0 28.26, 0.15 26.5, 0.46 24.79 C0.76 23.08, 1.22 21.37, 1.81 19.74 C2.4 18.11, 3.15 16.5, 4.02 15 C4.89 13.5, 5.9 12.05, 7.02 10.72 C8.13 9.39, 9.39 8.13, 10.72 7.02 C12.05 5.9, 13.5 4.89, 15 4.02 C16.5 3.15, 18.11 2.4, 19.74 1.81 C21.37 1.22, 23.08 0.76, 24.79 0.46 C26.5 0.15, 28.26 0, 30 0 C31.74 0, 33.5 0.15, 35.21 0.46 C36.92 0.76, 38.63 1.22, 40.26 1.81 C41.89 2.4, 43.5 3.15, 45 4.02 C46.5 4.89, 47.95 5.9, 49.28 7.02 C50.61 8.13, 51.87 9.39, 52.98 10.72 C54.1 12.05, 55.11 13.5, 55.98 15 C56.85 16.5, 57.6 18.11, 58.19 19.74 C58.78 21.37, 59.24 23.08, 59.54 24.79 C59.85 26.5, 59.92 29.13, 60 30 C60.08 30.87, 60.08 29.13, 60 30" stroke="none" stroke-width="0" fill="#162635"></path><path d="M60 30 C60 31.74, 59.85 33.5, 59.54 35.21 C59.24 36.92, 58.78 38.63, 58.19 40.26 C57.6 41.89, 56.85 43.5, 55.98 45 C55.11 46.5, 54.1 47.95, 52.98 49.28 C51.87 50.61, 50.61 51.87, 49.28 52.98 C47.95 54.1, 46.5 55.11, 45 55.98 C43.5 56.85, 41.89 57.6, 40.26 58.19 C38.63 58.78, 36.92 59.24, 35.21 59.54 C33.5 59.85, 31.74 60, 30 60 C28.26 60, 26.5 59.85, 24.79 59.54 C23.08 59.24, 21.37 58.78, 19.74 58.19 C18.11 57.6, 16.5 56.85, 15 55.98 C13.5 55.11, 12.05 54.1, 10.72 52.98 C9.39 51.87, 8.13 50.61, 7.02 49.28 C5.9 47.95, 4.89 46.5, 4.02 45 C3.15 43.5, 2.4 41.89, 1.81 40.26 C1.22 38.63, 0.76 36.92, 0.46 35.21 C0.15 33.5, 0 31.74, 0 30 C0 28.26, 0.15 26.5, 0.46 24.79 C0.76 23.08, 1.22 21.37, 1.81 19.74 C2.4 18.11, 3.15 16.5, 4.02 15 C4.89 13.5, 5.9 12.05, 7.02 10.72 C8.13 9.39, 9.39 8.13, 10.72 7.02 C12.05 5.9, 13.5 4.89, 15 4.02 C16.5 3.15, 18.11 2.4, 19.74 1.81 C21.37 1.22, 23.08 0.76, 24.79 0.46 C26.5 0.15, 28.26 0, 30 0 C31.74 0, 33.5 0.15, 35.21 0.46 C36.92 0.76, 38.63 1.22, 40.26 1.81 C41.89 2.4, 43.5 3.15, 45 4.02 C46.5 4.89, 47.95 5.9, 49.28 7.02 C50.61 8.13, 51.87 9.39, 52.98 10.72 C54.1 12.05, 55.11 13.5, 55.98 15 C56.85 16.5, 57.6 18.11, 58.19 19.74 C58.78 21.37, 59.24 23.08, 59.54 24.79 C59.85 26.5, 59.92 29.13, 60 30 C60.08 30.87, 60.08 29.13, 60 30" stroke="#162635" stroke-width="1" fill="none"></path></g><g stroke-linecap="round" transform="translate(521.6737945787374 591) rotate(0 30 30)"><path d="M60 30 C60 31.74, 59.85 33.5, 59.54 35.21 C59.24 36.92, 58.78 38.63, 58.19 40.26 C57.6 41.89, 56.85 43.5, 55.98 45 C55.11 46.5, 54.1 47.95, 52.98 49.28 C51.87 50.61, 50.61 51.87, 49.28 52.98 C47.95 54.1, 46.5 55.11, 45 55.98 C43.5 56.85, 41.89 57.6, 40.26 58.19 C38.63 58.78, 36.92 59.24, 35.21 59.54 C33.5 59.85, 31.74 60, 30 60 C28.26 60, 26.5 59.85, 24.79 59.54 C23.08 59.24, 21.37 58.78, 19.74 58.19 C18.11 57.6, 16.5 56.85, 15 55.98 C13.5 55.11, 12.05 54.1, 10.72 52.98 C9.39 51.87, 8.13 50.61, 7.02 49.28 C5.9 47.95, 4.89 46.5, 4.02 45 C3.15 43.5, 2.4 41.89, 1.81 40.26 C1.22 38.63, 0.76 36.92, 0.46 35.21 C0.15 33.5, 0 31.74, 0 30 C0 28.26, 0.15 26.5, 0.46 24.79 C0.76 23.08, 1.22 21.37, 1.81 19.74 C2.4 18.11, 3.15 16.5, 4.02 15 C4.89 13.5, 5.9 12.05, 7.02 10.72 C8.13 9.39, 9.39 8.13, 10.72 7.02 C12.05 5.9, 13.5 4.89, 15 4.02 C16.5 3.15, 18.11 2.4, 19.74 1.81 C21.37 1.22, 23.08 0.76, 24.79 0.46 C26.5 0.15, 28.26 0, 30 0 C31.74 0, 33.5 0.15, 35.21 0.46 C36.92 0.76, 38.63 1.22, 40.26 1.81 C41.89 2.4, 43.5 3.15, 45 4.02 C46.5 4.89, 47.95 5.9, 49.28 7.02 C50.61 8.13, 51.87 9.39, 52.98 10.72 C54.1 12.05, 55.11 13.5, 55.98 15 C56.85 16.5, 57.6 18.11, 58.19 19.74 C58.78 21.37, 59.24 23.08, 59.54 24.79 C59.85 26.5, 59.92 29.13, 60 30 C60.08 30.87, 60.08 29.13, 60 30" stroke="none" stroke-width="0" fill="#162635"></path><path d="M60 30 C60 31.74, 59.85 33.5, 59.54 35.21 C59.24 36.92, 58.78 38.63, 58.19 40.26 C57.6 41.89, 56.85 43.5, 55.98 45 C55.11 46.5, 54.1 47.95, 52.98 49.28 C51.87 50.61, 50.61 51.87, 49.28 52.98 C47.95 54.1, 46.5 55.11, 45 55.98 C43.5 56.85, 41.89 57.6, 40.26 58.19 C38.63 58.78, 36.92 59.24, 35.21 59.54 C33.5 59.85, 31.74 60, 30 60 C28.26 60, 26.5 59.85, 24.79 59.54 C23.08 59.24, 21.37 58.78, 19.74 58.19 C18.11 57.6, 16.5 56.85, 15 55.98 C13.5 55.11, 12.05 54.1, 10.72 52.98 C9.39 51.87, 8.13 50.61, 7.02 49.28 C5.9 47.95, 4.89 46.5, 4.02 45 C3.15 43.5, 2.4 41.89, 1.81 40.26 C1.22 38.63, 0.76 36.92, 0.46 35.21 C0.15 33.5, 0 31.74, 0 30 C0 28.26, 0.15 26.5, 0.46 24.79 C0.76 23.08, 1.22 21.37, 1.81 19.74 C2.4 18.11, 3.15 16.5, 4.02 15 C4.89 13.5, 5.9 12.05, 7.02 10.72 C8.13 9.39, 9.39 8.13, 10.72 7.02 C12.05 5.9, 13.5 4.89, 15 4.02 C16.5 3.15, 18.11 2.4, 19.74 1.81 C21.37 1.22, 23.08 0.76, 24.79 0.46 C26.5 0.15, 28.26 0, 30 0 C31.74 0, 33.5 0.15, 35.21 0.46 C36.92 0.76, 38.63 1.22, 40.26 1.81 C41.89 2.4, 43.5 3.15, 45 4.02 C46.5 4.89, 47.95 5.9, 49.28 7.02 C50.61 8.13, 51.87 9.39, 52.98 10.72 C54.1 12.05, 55.11 13.5, 55.98 15 C56.85 16.5, 57.6 18.11, 58.19 19.74 C58.78 21.37, 59.24 23.08, 59.54 24.79 C59.85 26.5, 59.92 29.13, 60 30 C60.08 30.87, 60.08 29.13, 60 30" stroke="#162635" stroke-width="1" fill="none"></path></g><g stroke-linecap="round" transform="translate(284.67379457873744 493.5) rotate(0 30 30)"><path d="M60 30 C60 31.74, 59.85 33.5, 59.54 35.21 C59.24 36.92, 58.78 38.63, 58.19 40.26 C57.6 41.89, 56.85 43.5, 55.98 45 C55.11 46.5, 54.1 47.95, 52.98 49.28 C51.87 50.61, 50.61 51.87, 49.28 52.98 C47.95 54.1, 46.5 55.11, 45 55.98 C43.5 56.85, 41.89 57.6, 40.26 58.19 C38.63 58.78, 36.92 59.24, 35.21 59.54 C33.5 59.85, 31.74 60, 30 60 C28.26 60, 26.5 59.85, 24.79 59.54 C23.08 59.24, 21.37 58.78, 19.74 58.19 C18.11 57.6, 16.5 56.85, 15 55.98 C13.5 55.11, 12.05 54.1, 10.72 52.98 C9.39 51.87, 8.13 50.61, 7.02 49.28 C5.9 47.95, 4.89 46.5, 4.02 45 C3.15 43.5, 2.4 41.89, 1.81 40.26 C1.22 38.63, 0.76 36.92, 0.46 35.21 C0.15 33.5, 0 31.74, 0 30 C0 28.26, 0.15 26.5, 0.46 24.79 C0.76 23.08, 1.22 21.37, 1.81 19.74 C2.4 18.11, 3.15 16.5, 4.02 15 C4.89 13.5, 5.9 12.05, 7.02 10.72 C8.13 9.39, 9.39 8.13, 10.72 7.02 C12.05 5.9, 13.5 4.89, 15 4.02 C16.5 3.15, 18.11 2.4, 19.74 1.81 C21.37 1.22, 23.08 0.76, 24.79 0.46 C26.5 0.15, 28.26 0, 30 0 C31.74 0, 33.5 0.15, 35.21 0.46 C36.92 0.76, 38.63 1.22, 40.26 1.81 C41.89 2.4, 43.5 3.15, 45 4.02 C46.5 4.89, 47.95 5.9, 49.28 7.02 C50.61 8.13, 51.87 9.39, 52.98 10.72 C54.1 12.05, 55.11 13.5, 55.98 15 C56.85 16.5, 57.6 18.11, 58.19 19.74 C58.78 21.37, 59.24 23.08, 59.54 24.79 C59.85 26.5, 59.92 29.13, 60 30 C60.08 30.87, 60.08 29.13, 60 30" stroke="none" stroke-width="0" fill="#162635"></path><path d="M60 30 C60 31.74, 59.85 33.5, 59.54 35.21 C59.24 36.92, 58.78 38.63, 58.19 40.26 C57.6 41.89, 56.85 43.5, 55.98 45 C55.11 46.5, 54.1 47.95, 52.98 49.28 C51.87 50.61, 50.61 51.87, 49.28 52.98 C47.95 54.1, 46.5 55.11, 45 55.98 C43.5 56.85, 41.89 57.6, 40.26 58.19 C38.63 58.78, 36.92 59.24, 35.21 59.54 C33.5 59.85, 31.74 60, 30 60 C28.26 60, 26.5 59.85, 24.79 59.54 C23.08 59.24, 21.37 58.78, 19.74 58.19 C18.11 57.6, 16.5 56.85, 15 55.98 C13.5 55.11, 12.05 54.1, 10.72 52.98 C9.39 51.87, 8.13 50.61, 7.02 49.28 C5.9 47.95, 4.89 46.5, 4.02 45 C3.15 43.5, 2.4 41.89, 1.81 40.26 C1.22 38.63, 0.76 36.92, 0.46 35.21 C0.15 33.5, 0 31.74, 0 30 C0 28.26, 0.15 26.5, 0.46 24.79 C0.76 23.08, 1.22 21.37, 1.81 19.74 C2.4 18.11, 3.15 16.5, 4.02 15 C4.89 13.5, 5.9 12.05, 7.02 10.72 C8.13 9.39, 9.39 8.13, 10.72 7.02 C12.05 5.9, 13.5 4.89, 15 4.02 C16.5 3.15, 18.11 2.4, 19.74 1.81 C21.37 1.22, 23.08 0.76, 24.79 0.46 C26.5 0.15, 28.26 0, 30 0 C31.74 0, 33.5 0.15, 35.21 0.46 C36.92 0.76, 38.63 1.22, 40.26 1.81 C41.89 2.4, 43.5 3.15, 45 4.02 C46.5 4.89, 47.95 5.9, 49.28 7.02 C50.61 8.13, 51.87 9.39, 52.98 10.72 C54.1 12.05, 55.11 13.5, 55.98 15 C56.85 16.5, 57.6 18.11, 58.19 19.74 C58.78 21.37, 59.24 23.08, 59.54 24.79 C59.85 26.5, 59.92 29.13, 60 30 C60.08 30.87, 60.08 29.13, 60 30" stroke="#162635" stroke-width="1" fill="none"></path></g><g stroke-linecap="round" transform="translate(635.1737945787374 449.5) rotate(0 30 30)"><path d="M60 30 C60 31.74, 59.85 33.5, 59.54 35.21 C59.24 36.92, 58.78 38.63, 58.19 40.26 C57.6 41.89, 56.85 43.5, 55.98 45 C55.11 46.5, 54.1 47.95, 52.98 49.28 C51.87 50.61, 50.61 51.87, 49.28 52.98 C47.95 54.1, 46.5 55.11, 45 55.98 C43.5 56.85, 41.89 57.6, 40.26 58.19 C38.63 58.78, 36.92 59.24, 35.21 59.54 C33.5 59.85, 31.74 60, 30 60 C28.26 60, 26.5 59.85, 24.79 59.54 C23.08 59.24, 21.37 58.78, 19.74 58.19 C18.11 57.6, 16.5 56.85, 15 55.98 C13.5 55.11, 12.05 54.1, 10.72 52.98 C9.39 51.87, 8.13 50.61, 7.02 49.28 C5.9 47.95, 4.89 46.5, 4.02 45 C3.15 43.5, 2.4 41.89, 1.81 40.26 C1.22 38.63, 0.76 36.92, 0.46 35.21 C0.15 33.5, 0 31.74, 0 30 C0 28.26, 0.15 26.5, 0.46 24.79 C0.76 23.08, 1.22 21.37, 1.81 19.74 C2.4 18.11, 3.15 16.5, 4.02 15 C4.89 13.5, 5.9 12.05, 7.02 10.72 C8.13 9.39, 9.39 8.13, 10.72 7.02 C12.05 5.9, 13.5 4.89, 15 4.02 C16.5 3.15, 18.11 2.4, 19.74 1.81 C21.37 1.22, 23.08 0.76, 24.79 0.46 C26.5 0.15, 28.26 0, 30 0 C31.74 0, 33.5 0.15, 35.21 0.46 C36.92 0.76, 38.63 1.22, 40.26 1.81 C41.89 2.4, 43.5 3.15, 45 4.02 C46.5 4.89, 47.95 5.9, 49.28 7.02 C50.61 8.13, 51.87 9.39, 52.98 10.72 C54.1 12.05, 55.11 13.5, 55.98 15 C56.85 16.5, 57.6 18.11, 58.19 19.74 C58.78 21.37, 59.24 23.08, 59.54 24.79 C59.85 26.5, 59.92 29.13, 60 30 C60.08 30.87, 60.08 29.13, 60 30" stroke="none" stroke-width="0" fill="#162635"></path><path d="M60 30 C60 31.74, 59.85 33.5, 59.54 35.21 C59.24 36.92, 58.78 38.63, 58.19 40.26 C57.6 41.89, 56.85 43.5, 55.98 45 C55.11 46.5, 54.1 47.95, 52.98 49.28 C51.87 50.61, 50.61 51.87, 49.28 52.98 C47.95 54.1, 46.5 55.11, 45 55.98 C43.5 56.85, 41.89 57.6, 40.26 58.19 C38.63 58.78, 36.92 59.24, 35.21 59.54 C33.5 59.85, 31.74 60, 30 60 C28.26 60, 26.5 59.85, 24.79 59.54 C23.08 59.24, 21.37 58.78, 19.74 58.19 C18.11 57.6, 16.5 56.85, 15 55.98 C13.5 55.11, 12.05 54.1, 10.72 52.98 C9.39 51.87, 8.13 50.61, 7.02 49.28 C5.9 47.95, 4.89 46.5, 4.02 45 C3.15 43.5, 2.4 41.89, 1.81 40.26 C1.22 38.63, 0.76 36.92, 0.46 35.21 C0.15 33.5, 0 31.74, 0 30 C0 28.26, 0.15 26.5, 0.46 24.79 C0.76 23.08, 1.22 21.37, 1.81 19.74 C2.4 18.11, 3.15 16.5, 4.02 15 C4.89 13.5, 5.9 12.05, 7.02 10.72 C8.13 9.39, 9.39 8.13, 10.72 7.02 C12.05 5.9, 13.5 4.89, 15 4.02 C16.5 3.15, 18.11 2.4, 19.74 1.81 C21.37 1.22, 23.08 0.76, 24.79 0.46 C26.5 0.15, 28.26 0, 30 0 C31.74 0, 33.5 0.15, 35.21 0.46 C36.92 0.76, 38.63 1.22, 40.26 1.81 C41.89 2.4, 43.5 3.15, 45 4.02 C46.5 4.89, 47.95 5.9, 49.28 7.02 C50.61 8.13, 51.87 9.39, 52.98 10.72 C54.1 12.05, 55.11 13.5, 55.98 15 C56.85 16.5, 57.6 18.11, 58.19 19.74 C58.78 21.37, 59.24 23.08, 59.54 24.79 C59.85 26.5, 59.92 29.13, 60 30 C60.08 30.87, 60.08 29.13, 60 30" stroke="#162635" stroke-width="1" fill="none"></path></g><g stroke-linecap="round" transform="translate(329.79987368714274 405.67001565367684) rotate(13.270643876403687 4.623920891594821 37.329984346323215)"><path d="M0 0 L9.25 0 L9.25 74.66 L0 74.66" stroke="none" stroke-width="0" fill="#162635"></path><path d="M0 0 C3.28 0, 6.56 0, 9.25 0 M0 0 C2.43 0, 4.86 0, 9.25 0 M9.25 0 C9.25 26.44, 9.25 52.88, 9.25 74.66 M9.25 0 C9.25 17.75, 9.25 35.5, 9.25 74.66 M9.25 74.66 C6.28 74.66, 3.31 74.66, 0 74.66 M9.25 74.66 C7.3 74.66, 5.36 74.66, 0 74.66 M0 74.66 C0 54.9, 0 35.13, 0 0 M0 74.66 C0 59.22, 0 43.78, 0 0" stroke="#162635" stroke-width="4" fill="none"></path></g><g stroke-linecap="round" transform="translate(426.0390172247862 491.4839683154523) rotate(292.3879442081758 5.634777353951279 81.76603168454776)"><path d="M0 0 L11.27 0 L11.27 163.53 L0 163.53" stroke="none" stroke-width="0" fill="#162635"></path><path d="M0 0 C3.4 0, 6.8 0, 11.27 0 M0 0 C3.26 0, 6.52 0, 11.27 0 M11.27 0 C11.27 49.02, 11.27 98.04, 11.27 163.53 M11.27 0 C11.27 60.17, 11.27 120.33, 11.27 163.53 M11.27 163.53 C8.54 163.53, 5.8 163.53, 0 163.53 M11.27 163.53 C8.22 163.53, 5.17 163.53, 0 163.53 M0 163.53 C0 118.61, 0 73.69, 0 0 M0 163.53 C0 109.4, 0 55.27, 0 0" stroke="#162635" stroke-width="4" fill="none"></path></g><g stroke-linecap="round" transform="translate(603.2966331224076 503.66030907133376) rotate(38.13000769178588 5.067782432148817 46.59684502796506)"><path d="M0 0 L10.14 0 L10.14 93.19 L0 93.19" stroke="none" stroke-width="0" fill="#162635"></path><path d="M0 0 C3.24 0, 6.47 0, 10.14 0 M0 0 C3.2 0, 6.39 0, 10.14 0 M10.14 0 C10.14 37.18, 10.14 74.36, 10.14 93.19 M10.14 0 C10.14 26, 10.14 52.01, 10.14 93.19 M10.14 93.19 C6.42 93.19, 2.71 93.19, 0 93.19 M10.14 93.19 C7.57 93.19, 5.01 93.19, 0 93.19 M0 93.19 C0 70.37, 0 47.54, 0 0 M0 93.19 C0 73.04, 0 52.89, 0 0" stroke="#162635" stroke-width="4" fill="none"></path></g><g stroke-linecap="round" transform="translate(502.13855499853196 297.5392063650116) rotate(290.6888486392448 6.004086774281291 122.25301517417611)"><path d="M0 0 L12.01 0 L12.01 244.51 L0 244.51" stroke="none" stroke-width="0" fill="#162635"></path><path d="M0 0 C4.28 0, 8.56 0, 12.01 0 M0 0 C3.86 0, 7.71 0, 12.01 0 M12.01 0 C12.01 71.84, 12.01 143.68, 12.01 244.51 M12.01 0 C12.01 52.81, 12.01 105.62, 12.01 244.51 M12.01 244.51 C8.36 244.51, 4.72 244.51, 0 244.51 M12.01 244.51 C7.29 244.51, 2.56 244.51, 0 244.51 M0 244.51 C0 153.06, 0 61.61, 0 0 M0 244.51 C0 184.74, 0 124.97, 0 0" stroke="#162635" stroke-width="4" fill="none"></path></g><g stroke-linecap="round" transform="translate(204.17379457873744 204.5) rotate(0 30 30)"><path d="M60 30 C60 31.74, 59.85 33.5, 59.54 35.21 C59.24 36.92, 58.78 38.63, 58.19 40.26 C57.6 41.89, 56.85 43.5, 55.98 45 C55.11 46.5, 54.1 47.95, 52.98 49.28 C51.87 50.61, 50.61 51.87, 49.28 52.98 C47.95 54.1, 46.5 55.11, 45 55.98 C43.5 56.85, 41.89 57.6, 40.26 58.19 C38.63 58.78, 36.92 59.24, 35.21 59.54 C33.5 59.85, 31.74 60, 30 60 C28.26 60, 26.5 59.85, 24.79 59.54 C23.08 59.24, 21.37 58.78, 19.74 58.19 C18.11 57.6, 16.5 56.85, 15 55.98 C13.5 55.11, 12.05 54.1, 10.72 52.98 C9.39 51.87, 8.13 50.61, 7.02 49.28 C5.9 47.95, 4.89 46.5, 4.02 45 C3.15 43.5, 2.4 41.89, 1.81 40.26 C1.22 38.63, 0.76 36.92, 0.46 35.21 C0.15 33.5, 0 31.74, 0 30 C0 28.26, 0.15 26.5, 0.46 24.79 C0.76 23.08, 1.22 21.37, 1.81 19.74 C2.4 18.11, 3.15 16.5, 4.02 15 C4.89 13.5, 5.9 12.05, 7.02 10.72 C8.13 9.39, 9.39 8.13, 10.72 7.02 C12.05 5.9, 13.5 4.89, 15 4.02 C16.5 3.15, 18.11 2.4, 19.74 1.81 C21.37 1.22, 23.08 0.76, 24.79 0.46 C26.5 0.15, 28.26 0, 30 0 C31.74 0, 33.5 0.15, 35.21 0.46 C36.92 0.76, 38.63 1.22, 40.26 1.81 C41.89 2.4, 43.5 3.15, 45 4.02 C46.5 4.89, 47.95 5.9, 49.28 7.02 C50.61 8.13, 51.87 9.39, 52.98 10.72 C54.1 12.05, 55.11 13.5, 55.98 15 C56.85 16.5, 57.6 18.11, 58.19 19.74 C58.78 21.37, 59.24 23.08, 59.54 24.79 C59.85 26.5, 59.92 29.13, 60 30 C60.08 30.87, 60.08 29.13, 60 30" stroke="none" stroke-width="0" fill="#162635"></path><path d="M60 30 C60 31.74, 59.85 33.5, 59.54 35.21 C59.24 36.92, 58.78 38.63, 58.19 40.26 C57.6 41.89, 56.85 43.5, 55.98 45 C55.11 46.5, 54.1 47.95, 52.98 49.28 C51.87 50.61, 50.61 51.87, 49.28 52.98 C47.95 54.1, 46.5 55.11, 45 55.98 C43.5 56.85, 41.89 57.6, 40.26 58.19 C38.63 58.78, 36.92 59.24, 35.21 59.54 C33.5 59.85, 31.74 60, 30 60 C28.26 60, 26.5 59.85, 24.79 59.54 C23.08 59.24, 21.37 58.78, 19.74 58.19 C18.11 57.6, 16.5 56.85, 15 55.98 C13.5 55.11, 12.05 54.1, 10.72 52.98 C9.39 51.87, 8.13 50.61, 7.02 49.28 C5.9 47.95, 4.89 46.5, 4.02 45 C3.15 43.5, 2.4 41.89, 1.81 40.26 C1.22 38.63, 0.76 36.92, 0.46 35.21 C0.15 33.5, 0 31.74, 0 30 C0 28.26, 0.15 26.5, 0.46 24.79 C0.76 23.08, 1.22 21.37, 1.81 19.74 C2.4 18.11, 3.15 16.5, 4.02 15 C4.89 13.5, 5.9 12.05, 7.02 10.72 C8.13 9.39, 9.39 8.13, 10.72 7.02 C12.05 5.9, 13.5 4.89, 15 4.02 C16.5 3.15, 18.11 2.4, 19.74 1.81 C21.37 1.22, 23.08 0.76, 24.79 0.46 C26.5 0.15, 28.26 0, 30 0 C31.74 0, 33.5 0.15, 35.21 0.46 C36.92 0.76, 38.63 1.22, 40.26 1.81 C41.89 2.4, 43.5 3.15, 45 4.02 C46.5 4.89, 47.95 5.9, 49.28 7.02 C50.61 8.13, 51.87 9.39, 52.98 10.72 C54.1 12.05, 55.11 13.5, 55.98 15 C56.85 16.5, 57.6 18.11, 58.19 19.74 C58.78 21.37, 59.24 23.08, 59.54 24.79 C59.85 26.5, 59.92 29.13, 60 30 C60.08 30.87, 60.08 29.13, 60 30" stroke="#162635" stroke-width="1" fill="none"></path></g><g stroke-linecap="round" transform="translate(156.16008779933713 63.98597341857092) rotate(0 30 30)"><path d="M60 30 C60 31.74, 59.85 33.5, 59.54 35.21 C59.24 36.92, 58.78 38.63, 58.19 40.26 C57.6 41.89, 56.85 43.5, 55.98 45 C55.11 46.5, 54.1 47.95, 52.98 49.28 C51.87 50.61, 50.61 51.87, 49.28 52.98 C47.95 54.1, 46.5 55.11, 45 55.98 C43.5 56.85, 41.89 57.6, 40.26 58.19 C38.63 58.78, 36.92 59.24, 35.21 59.54 C33.5 59.85, 31.74 60, 30 60 C28.26 60, 26.5 59.85, 24.79 59.54 C23.08 59.24, 21.37 58.78, 19.74 58.19 C18.11 57.6, 16.5 56.85, 15 55.98 C13.5 55.11, 12.05 54.1, 10.72 52.98 C9.39 51.87, 8.13 50.61, 7.02 49.28 C5.9 47.95, 4.89 46.5, 4.02 45 C3.15 43.5, 2.4 41.89, 1.81 40.26 C1.22 38.63, 0.76 36.92, 0.46 35.21 C0.15 33.5, 0 31.74, 0 30 C0 28.26, 0.15 26.5, 0.46 24.79 C0.76 23.08, 1.22 21.37, 1.81 19.74 C2.4 18.11, 3.15 16.5, 4.02 15 C4.89 13.5, 5.9 12.05, 7.02 10.72 C8.13 9.39, 9.39 8.13, 10.72 7.02 C12.05 5.9, 13.5 4.89, 15 4.02 C16.5 3.15, 18.11 2.4, 19.74 1.81 C21.37 1.22, 23.08 0.76, 24.79 0.46 C26.5 0.15, 28.26 0, 30 0 C31.74 0, 33.5 0.15, 35.21 0.46 C36.92 0.76, 38.63 1.22, 40.26 1.81 C41.89 2.4, 43.5 3.15, 45 4.02 C46.5 4.89, 47.95 5.9, 49.28 7.02 C50.61 8.13, 51.87 9.39, 52.98 10.72 C54.1 12.05, 55.11 13.5, 55.98 15 C56.85 16.5, 57.6 18.11, 58.19 19.74 C58.78 21.37, 59.24 23.08, 59.54 24.79 C59.85 26.5, 59.92 29.13, 60 30 C60.08 30.87, 60.08 29.13, 60 30" stroke="none" stroke-width="0" fill="#162635"></path><path d="M60 30 C60 31.74, 59.85 33.5, 59.54 35.21 C59.24 36.92, 58.78 38.63, 58.19 40.26 C57.6 41.89, 56.85 43.5, 55.98 45 C55.11 46.5, 54.1 47.95, 52.98 49.28 C51.87 50.61, 50.61 51.87, 49.28 52.98 C47.95 54.1, 46.5 55.11, 45 55.98 C43.5 56.85, 41.89 57.6, 40.26 58.19 C38.63 58.78, 36.92 59.24, 35.21 59.54 C33.5 59.85, 31.74 60, 30 60 C28.26 60, 26.5 59.85, 24.79 59.54 C23.08 59.24, 21.37 58.78, 19.74 58.19 C18.11 57.6, 16.5 56.85, 15 55.98 C13.5 55.11, 12.05 54.1, 10.72 52.98 C9.39 51.87, 8.13 50.61, 7.02 49.28 C5.9 47.95, 4.89 46.5, 4.02 45 C3.15 43.5, 2.4 41.89, 1.81 40.26 C1.22 38.63, 0.76 36.92, 0.46 35.21 C0.15 33.5, 0 31.74, 0 30 C0 28.26, 0.15 26.5, 0.46 24.79 C0.76 23.08, 1.22 21.37, 1.81 19.74 C2.4 18.11, 3.15 16.5, 4.02 15 C4.89 13.5, 5.9 12.05, 7.02 10.72 C8.13 9.39, 9.39 8.13, 10.72 7.02 C12.05 5.9, 13.5 4.89, 15 4.02 C16.5 3.15, 18.11 2.4, 19.74 1.81 C21.37 1.22, 23.08 0.76, 24.79 0.46 C26.5 0.15, 28.26 0, 30 0 C31.74 0, 33.5 0.15, 35.21 0.46 C36.92 0.76, 38.63 1.22, 40.26 1.81 C41.89 2.4, 43.5 3.15, 45 4.02 C46.5 4.89, 47.95 5.9, 49.28 7.02 C50.61 8.13, 51.87 9.39, 52.98 10.72 C54.1 12.05, 55.11 13.5, 55.98 15 C56.85 16.5, 57.6 18.11, 58.19 19.74 C58.78 21.37, 59.24 23.08, 59.54 24.79 C59.85 26.5, 59.92 29.13, 60 30 C60.08 30.87, 60.08 29.13, 60 30" stroke="#162635" stroke-width="1" fill="none"></path></g><g stroke-linecap="round" transform="translate(10 10) rotate(0 30 30)"><path d="M60 30 C60 31.74, 59.85 33.5, 59.54 35.21 C59.24 36.92, 58.78 38.63, 58.19 40.26 C57.6 41.89, 56.85 43.5, 55.98 45 C55.11 46.5, 54.1 47.95, 52.98 49.28 C51.87 50.61, 50.61 51.87, 49.28 52.98 C47.95 54.1, 46.5 55.11, 45 55.98 C43.5 56.85, 41.89 57.6, 40.26 58.19 C38.63 58.78, 36.92 59.24, 35.21 59.54 C33.5 59.85, 31.74 60, 30 60 C28.26 60, 26.5 59.85, 24.79 59.54 C23.08 59.24, 21.37 58.78, 19.74 58.19 C18.11 57.6, 16.5 56.85, 15 55.98 C13.5 55.11, 12.05 54.1, 10.72 52.98 C9.39 51.87, 8.13 50.61, 7.02 49.28 C5.9 47.95, 4.89 46.5, 4.02 45 C3.15 43.5, 2.4 41.89, 1.81 40.26 C1.22 38.63, 0.76 36.92, 0.46 35.21 C0.15 33.5, 0 31.74, 0 30 C0 28.26, 0.15 26.5, 0.46 24.79 C0.76 23.08, 1.22 21.37, 1.81 19.74 C2.4 18.11, 3.15 16.5, 4.02 15 C4.89 13.5, 5.9 12.05, 7.02 10.72 C8.13 9.39, 9.39 8.13, 10.72 7.02 C12.05 5.9, 13.5 4.89, 15 4.02 C16.5 3.15, 18.11 2.4, 19.74 1.81 C21.37 1.22, 23.08 0.76, 24.79 0.46 C26.5 0.15, 28.26 0, 30 0 C31.74 0, 33.5 0.15, 35.21 0.46 C36.92 0.76, 38.63 1.22, 40.26 1.81 C41.89 2.4, 43.5 3.15, 45 4.02 C46.5 4.89, 47.95 5.9, 49.28 7.02 C50.61 8.13, 51.87 9.39, 52.98 10.72 C54.1 12.05, 55.11 13.5, 55.98 15 C56.85 16.5, 57.6 18.11, 58.19 19.74 C58.78 21.37, 59.24 23.08, 59.54 24.79 C59.85 26.5, 59.92 29.13, 60 30 C60.08 30.87, 60.08 29.13, 60 30" stroke="none" stroke-width="0" fill="#162635"></path><path d="M60 30 C60 31.74, 59.85 33.5, 59.54 35.21 C59.24 36.92, 58.78 38.63, 58.19 40.26 C57.6 41.89, 56.85 43.5, 55.98 45 C55.11 46.5, 54.1 47.95, 52.98 49.28 C51.87 50.61, 50.61 51.87, 49.28 52.98 C47.95 54.1, 46.5 55.11, 45 55.98 C43.5 56.85, 41.89 57.6, 40.26 58.19 C38.63 58.78, 36.92 59.24, 35.21 59.54 C33.5 59.85, 31.74 60, 30 60 C28.26 60, 26.5 59.85, 24.79 59.54 C23.08 59.24, 21.37 58.78, 19.74 58.19 C18.11 57.6, 16.5 56.85, 15 55.98 C13.5 55.11, 12.05 54.1, 10.72 52.98 C9.39 51.87, 8.13 50.61, 7.02 49.28 C5.9 47.95, 4.89 46.5, 4.02 45 C3.15 43.5, 2.4 41.89, 1.81 40.26 C1.22 38.63, 0.76 36.92, 0.46 35.21 C0.15 33.5, 0 31.74, 0 30 C0 28.26, 0.15 26.5, 0.46 24.79 C0.76 23.08, 1.22 21.37, 1.81 19.74 C2.4 18.11, 3.15 16.5, 4.02 15 C4.89 13.5, 5.9 12.05, 7.02 10.72 C8.13 9.39, 9.39 8.13, 10.72 7.02 C12.05 5.9, 13.5 4.89, 15 4.02 C16.5 3.15, 18.11 2.4, 19.74 1.81 C21.37 1.22, 23.08 0.76, 24.79 0.46 C26.5 0.15, 28.26 0, 30 0 C31.74 0, 33.5 0.15, 35.21 0.46 C36.92 0.76, 38.63 1.22, 40.26 1.81 C41.89 2.4, 43.5 3.15, 45 4.02 C46.5 4.89, 47.95 5.9, 49.28 7.02 C50.61 8.13, 51.87 9.39, 52.98 10.72 C54.1 12.05, 55.11 13.5, 55.98 15 C56.85 16.5, 57.6 18.11, 58.19 19.74 C58.78 21.37, 59.24 23.08, 59.54 24.79 C59.85 26.5, 59.92 29.13, 60 30 C60.08 30.87, 60.08 29.13, 60 30" stroke="#162635" stroke-width="1" fill="none"></path></g><g stroke-linecap="round" transform="translate(287.9108170482667 254.2069047708781) rotate(316.01697803071914 5.012977530470664 45.29309522912189)"><path d="M0 0 L10.03 0 L10.03 90.59 L0 90.59" stroke="none" stroke-width="0" fill="#162635"></path><path d="M0 0 C2.82 0, 5.65 0, 10.03 0 M0 0 C2.32 0, 4.65 0, 10.03 0 M10.03 0 C10.03 32.82, 10.03 65.65, 10.03 90.59 M10.03 0 C10.03 32.22, 10.03 64.44, 10.03 90.59 M10.03 90.59 C7.35 90.59, 4.68 90.59, 0 90.59 M10.03 90.59 C7.39 90.59, 4.76 90.59, 0 90.59 M0 90.59 C0 60.09, 0 29.6, 0 0 M0 90.59 C0 57.39, 0 24.2, 0 0" stroke="#162635" stroke-width="4" fill="none"></path></g><g stroke-linecap="round" transform="translate(108.24684832898004 30.762241680831693) rotate(290.7754346627305 4.6631679633299825 36.806775055451695)"><path d="M0 0 L9.33 0 L9.33 73.61 L0 73.61" stroke="none" stroke-width="0" fill="#162635"></path><path d="M0 0 C3.53 0, 7.06 0, 9.33 0 M0 0 C2.3 0, 4.61 0, 9.33 0 M9.33 0 C9.33 19.67, 9.33 39.35, 9.33 73.61 M9.33 0 C9.33 18.53, 9.33 37.07, 9.33 73.61 M9.33 73.61 C6.66 73.61, 3.99 73.61, 0 73.61 M9.33 73.61 C6.39 73.61, 3.46 73.61, 0 73.61 M0 73.61 C0 46.95, 0 20.3, 0 0 M0 73.61 C0 44.92, 0 16.23, 0 0" stroke="#162635" stroke-width="4" fill="none"></path></g><g stroke-linecap="round" transform="translate(203.8060977160079 130.17895875734155) rotate(341.08368159239336 4.848926692326927 34.44758867355903)"><path d="M0 0 L9.7 0 L9.7 68.9 L0 68.9" stroke="none" stroke-width="0" fill="#162635"></path><path d="M0 0 C2.98 0, 5.96 0, 9.7 0 M0 0 C2.38 0, 4.76 0, 9.7 0 M9.7 0 C9.7 15.4, 9.7 30.79, 9.7 68.9 M9.7 0 C9.7 15.24, 9.7 30.47, 9.7 68.9 M9.7 68.9 C5.99 68.9, 2.28 68.9, 0 68.9 M9.7 68.9 C7.01 68.9, 4.31 68.9, 0 68.9 M0 68.9 C0 45.75, 0 22.6, 0 0 M0 68.9 C0 52.12, 0 35.35, 0 0" stroke="#162635" stroke-width="4" fill="none"></path></g><g stroke-linecap="round" transform="translate(524.8166517215946 231.02182539682536) rotate(0 30 30)"><path d="M60 30 C60 31.74, 59.85 33.5, 59.54 35.21 C59.24 36.92, 58.78 38.63, 58.19 40.26 C57.6 41.89, 56.85 43.5, 55.98 45 C55.11 46.5, 54.1 47.95, 52.98 49.28 C51.87 50.61, 50.61 51.87, 49.28 52.98 C47.95 54.1, 46.5 55.11, 45 55.98 C43.5 56.85, 41.89 57.6, 40.26 58.19 C38.63 58.78, 36.92 59.24, 35.21 59.54 C33.5 59.85, 31.74 60, 30 60 C28.26 60, 26.5 59.85, 24.79 59.54 C23.08 59.24, 21.37 58.78, 19.74 58.19 C18.11 57.6, 16.5 56.85, 15 55.98 C13.5 55.11, 12.05 54.1, 10.72 52.98 C9.39 51.87, 8.13 50.61, 7.02 49.28 C5.9 47.95, 4.89 46.5, 4.02 45 C3.15 43.5, 2.4 41.89, 1.81 40.26 C1.22 38.63, 0.76 36.92, 0.46 35.21 C0.15 33.5, 0 31.74, 0 30 C0 28.26, 0.15 26.5, 0.46 24.79 C0.76 23.08, 1.22 21.37, 1.81 19.74 C2.4 18.11, 3.15 16.5, 4.02 15 C4.89 13.5, 5.9 12.05, 7.02 10.72 C8.13 9.39, 9.39 8.13, 10.72 7.02 C12.05 5.9, 13.5 4.89, 15 4.02 C16.5 3.15, 18.11 2.4, 19.74 1.81 C21.37 1.22, 23.08 0.76, 24.79 0.46 C26.5 0.15, 28.26 0, 30 0 C31.74 0, 33.5 0.15, 35.21 0.46 C36.92 0.76, 38.63 1.22, 40.26 1.81 C41.89 2.4, 43.5 3.15, 45 4.02 C46.5 4.89, 47.95 5.9, 49.28 7.02 C50.61 8.13, 51.87 9.39, 52.98 10.72 C54.1 12.05, 55.11 13.5, 55.98 15 C56.85 16.5, 57.6 18.11, 58.19 19.74 C58.78 21.37, 59.24 23.08, 59.54 24.79 C59.85 26.5, 59.92 29.13, 60 30 C60.08 30.87, 60.08 29.13, 60 30" stroke="none" stroke-width="0" fill="#162635"></path><path d="M60 30 C60 31.74, 59.85 33.5, 59.54 35.21 C59.24 36.92, 58.78 38.63, 58.19 40.26 C57.6 41.89, 56.85 43.5, 55.98 45 C55.11 46.5, 54.1 47.95, 52.98 49.28 C51.87 50.61, 50.61 51.87, 49.28 52.98 C47.95 54.1, 46.5 55.11, 45 55.98 C43.5 56.85, 41.89 57.6, 40.26 58.19 C38.63 58.78, 36.92 59.24, 35.21 59.54 C33.5 59.85, 31.74 60, 30 60 C28.26 60, 26.5 59.85, 24.79 59.54 C23.08 59.24, 21.37 58.78, 19.74 58.19 C18.11 57.6, 16.5 56.85, 15 55.98 C13.5 55.11, 12.05 54.1, 10.72 52.98 C9.39 51.87, 8.13 50.61, 7.02 49.28 C5.9 47.95, 4.89 46.5, 4.02 45 C3.15 43.5, 2.4 41.89, 1.81 40.26 C1.22 38.63, 0.76 36.92, 0.46 35.21 C0.15 33.5, 0 31.74, 0 30 C0 28.26, 0.15 26.5, 0.46 24.79 C0.76 23.08, 1.22 21.37, 1.81 19.74 C2.4 18.11, 3.15 16.5, 4.02 15 C4.89 13.5, 5.9 12.05, 7.02 10.72 C8.13 9.39, 9.39 8.13, 10.72 7.02 C12.05 5.9, 13.5 4.89, 15 4.02 C16.5 3.15, 18.11 2.4, 19.74 1.81 C21.37 1.22, 23.08 0.76, 24.79 0.46 C26.5 0.15, 28.26 0, 30 0 C31.74 0, 33.5 0.15, 35.21 0.46 C36.92 0.76, 38.63 1.22, 40.26 1.81 C41.89 2.4, 43.5 3.15, 45 4.02 C46.5 4.89, 47.95 5.9, 49.28 7.02 C50.61 8.13, 51.87 9.39, 52.98 10.72 C54.1 12.05, 55.11 13.5, 55.98 15 C56.85 16.5, 57.6 18.11, 58.19 19.74 C58.78 21.37, 59.24 23.08, 59.54 24.79 C59.85 26.5, 59.92 29.13, 60 30 C60.08 30.87, 60.08 29.13, 60 30" stroke="#162635" stroke-width="1" fill="none"></path></g><g stroke-linecap="round" transform="translate(12.816651721594553 235.02182539682536) rotate(0 30 30)"><path d="M60 30 C60 31.74, 59.85 33.5, 59.54 35.21 C59.24 36.92, 58.78 38.63, 58.19 40.26 C57.6 41.89, 56.85 43.5, 55.98 45 C55.11 46.5, 54.1 47.95, 52.98 49.28 C51.87 50.61, 50.61 51.87, 49.28 52.98 C47.95 54.1, 46.5 55.11, 45 55.98 C43.5 56.85, 41.89 57.6, 40.26 58.19 C38.63 58.78, 36.92 59.24, 35.21 59.54 C33.5 59.85, 31.74 60, 30 60 C28.26 60, 26.5 59.85, 24.79 59.54 C23.08 59.24, 21.37 58.78, 19.74 58.19 C18.11 57.6, 16.5 56.85, 15 55.98 C13.5 55.11, 12.05 54.1, 10.72 52.98 C9.39 51.87, 8.13 50.61, 7.02 49.28 C5.9 47.95, 4.89 46.5, 4.02 45 C3.15 43.5, 2.4 41.89, 1.81 40.26 C1.22 38.63, 0.76 36.92, 0.46 35.21 C0.15 33.5, 0 31.74, 0 30 C0 28.26, 0.15 26.5, 0.46 24.79 C0.76 23.08, 1.22 21.37, 1.81 19.74 C2.4 18.11, 3.15 16.5, 4.02 15 C4.89 13.5, 5.9 12.05, 7.02 10.72 C8.13 9.39, 9.39 8.13, 10.72 7.02 C12.05 5.9, 13.5 4.89, 15 4.02 C16.5 3.15, 18.11 2.4, 19.74 1.81 C21.37 1.22, 23.08 0.76, 24.79 0.46 C26.5 0.15, 28.26 0, 30 0 C31.74 0, 33.5 0.15, 35.21 0.46 C36.92 0.76, 38.63 1.22, 40.26 1.81 C41.89 2.4, 43.5 3.15, 45 4.02 C46.5 4.89, 47.95 5.9, 49.28 7.02 C50.61 8.13, 51.87 9.39, 52.98 10.72 C54.1 12.05, 55.11 13.5, 55.98 15 C56.85 16.5, 57.6 18.11, 58.19 19.74 C58.78 21.37, 59.24 23.08, 59.54 24.79 C59.85 26.5, 59.92 29.13, 60 30 C60.08 30.87, 60.08 29.13, 60 30" stroke="none" stroke-width="0" fill="#162635"></path><path d="M60 30 C60 31.74, 59.85 33.5, 59.54 35.21 C59.24 36.92, 58.78 38.63, 58.19 40.26 C57.6 41.89, 56.85 43.5, 55.98 45 C55.11 46.5, 54.1 47.95, 52.98 49.28 C51.87 50.61, 50.61 51.87, 49.28 52.98 C47.95 54.1, 46.5 55.11, 45 55.98 C43.5 56.85, 41.89 57.6, 40.26 58.19 C38.63 58.78, 36.92 59.24, 35.21 59.54 C33.5 59.85, 31.74 60, 30 60 C28.26 60, 26.5 59.85, 24.79 59.54 C23.08 59.24, 21.37 58.78, 19.74 58.19 C18.11 57.6, 16.5 56.85, 15 55.98 C13.5 55.11, 12.05 54.1, 10.72 52.98 C9.39 51.87, 8.13 50.61, 7.02 49.28 C5.9 47.95, 4.89 46.5, 4.02 45 C3.15 43.5, 2.4 41.89, 1.81 40.26 C1.22 38.63, 0.76 36.92, 0.46 35.21 C0.15 33.5, 0 31.74, 0 30 C0 28.26, 0.15 26.5, 0.46 24.79 C0.76 23.08, 1.22 21.37, 1.81 19.74 C2.4 18.11, 3.15 16.5, 4.02 15 C4.89 13.5, 5.9 12.05, 7.02 10.72 C8.13 9.39, 9.39 8.13, 10.72 7.02 C12.05 5.9, 13.5 4.89, 15 4.02 C16.5 3.15, 18.11 2.4, 19.74 1.81 C21.37 1.22, 23.08 0.76, 24.79 0.46 C26.5 0.15, 28.26 0, 30 0 C31.74 0, 33.5 0.15, 35.21 0.46 C36.92 0.76, 38.63 1.22, 40.26 1.81 C41.89 2.4, 43.5 3.15, 45 4.02 C46.5 4.89, 47.95 5.9, 49.28 7.02 C50.61 8.13, 51.87 9.39, 52.98 10.72 C54.1 12.05, 55.11 13.5, 55.98 15 C56.85 16.5, 57.6 18.11, 58.19 19.74 C58.78 21.37, 59.24 23.08, 59.54 24.79 C59.85 26.5, 59.92 29.13, 60 30 C60.08 30.87, 60.08 29.13, 60 30" stroke="#162635" stroke-width="1" fill="none"></path></g><g stroke-linecap="round" transform="translate(370.81665172159455 136.02182539682536) rotate(0 13.5 13)"><path d="M27 13 C27 13.75, 26.93 14.52, 26.79 15.26 C26.66 16, 26.45 16.74, 26.19 17.45 C25.92 18.15, 25.58 18.85, 25.19 19.5 C24.8 20.15, 24.34 20.78, 23.84 21.36 C23.34 21.93, 22.78 22.47, 22.18 22.96 C21.58 23.44, 20.93 23.88, 20.25 24.26 C19.57 24.63, 18.85 24.96, 18.12 25.22 C17.38 25.47, 16.61 25.67, 15.84 25.8 C15.07 25.93, 14.28 26, 13.5 26 C12.72 26, 11.93 25.93, 11.16 25.8 C10.39 25.67, 9.62 25.47, 8.88 25.22 C8.15 24.96, 7.43 24.63, 6.75 24.26 C6.07 23.88, 5.42 23.44, 4.82 22.96 C4.22 22.47, 3.66 21.93, 3.16 21.36 C2.66 20.78, 2.2 20.15, 1.81 19.5 C1.42 18.85, 1.08 18.15, 0.81 17.45 C0.55 16.74, 0.34 16, 0.21 15.26 C0.07 14.52, 0 13.75, 0 13 C0 12.25, 0.07 11.48, 0.21 10.74 C0.34 10, 0.55 9.26, 0.81 8.55 C1.08 7.85, 1.42 7.15, 1.81 6.5 C2.2 5.85, 2.66 5.22, 3.16 4.64 C3.66 4.07, 4.22 3.53, 4.82 3.04 C5.42 2.56, 6.07 2.12, 6.75 1.74 C7.43 1.37, 8.15 1.04, 8.88 0.78 C9.62 0.53, 10.39 0.33, 11.16 0.2 C11.93 0.07, 12.72 0, 13.5 0 C14.28 0, 15.07 0.07, 15.84 0.2 C16.61 0.33, 17.38 0.53, 18.12 0.78 C18.85 1.04, 19.57 1.37, 20.25 1.74 C20.93 2.12, 21.58 2.56, 22.18 3.04 C22.78 3.53, 23.34 4.07, 23.84 4.64 C24.34 5.22, 24.8 5.85, 25.19 6.5 C25.58 7.15, 25.92 7.85, 26.19 8.55 C26.45 9.26, 26.66 10, 26.79 10.74 C26.93 11.48, 26.97 12.62, 27 13 C27.03 13.38, 27.03 12.62, 27 13" stroke="none" stroke-width="0" fill="#162635"></path><path d="M27 13 C27 13.75, 26.93 14.52, 26.79 15.26 C26.66 16, 26.45 16.74, 26.19 17.45 C25.92 18.15, 25.58 18.85, 25.19 19.5 C24.8 20.15, 24.34 20.78, 23.84 21.36 C23.34 21.93, 22.78 22.47, 22.18 22.96 C21.58 23.44, 20.93 23.88, 20.25 24.26 C19.57 24.63, 18.85 24.96, 18.12 25.22 C17.38 25.47, 16.61 25.67, 15.84 25.8 C15.07 25.93, 14.28 26, 13.5 26 C12.72 26, 11.93 25.93, 11.16 25.8 C10.39 25.67, 9.62 25.47, 8.88 25.22 C8.15 24.96, 7.43 24.63, 6.75 24.26 C6.07 23.88, 5.42 23.44, 4.82 22.96 C4.22 22.47, 3.66 21.93, 3.16 21.36 C2.66 20.78, 2.2 20.15, 1.81 19.5 C1.42 18.85, 1.08 18.15, 0.81 17.45 C0.55 16.74, 0.34 16, 0.21 15.26 C0.07 14.52, 0 13.75, 0 13 C0 12.25, 0.07 11.48, 0.21 10.74 C0.34 10, 0.55 9.26, 0.81 8.55 C1.08 7.85, 1.42 7.15, 1.81 6.5 C2.2 5.85, 2.66 5.22, 3.16 4.64 C3.66 4.07, 4.22 3.53, 4.82 3.04 C5.42 2.56, 6.07 2.12, 6.75 1.74 C7.43 1.37, 8.15 1.04, 8.88 0.78 C9.62 0.53, 10.39 0.33, 11.16 0.2 C11.93 0.07, 12.72 0, 13.5 0 C14.28 0, 15.07 0.07, 15.84 0.2 C16.61 0.33, 17.38 0.53, 18.12 0.78 C18.85 1.04, 19.57 1.37, 20.25 1.74 C20.93 2.12, 21.58 2.56, 22.18 3.04 C22.78 3.53, 23.34 4.07, 23.84 4.64 C24.34 5.22, 24.8 5.85, 25.19 6.5 C25.58 7.15, 25.92 7.85, 26.19 8.55 C26.45 9.26, 26.66 10, 26.79 10.74 C26.93 11.48, 26.97 12.62, 27 13 C27.03 13.38, 27.03 12.62, 27 13" stroke="#162635" stroke-width="1" fill="none"></path></g><g stroke-linecap="round" transform="translate(84.81665172159455 481.0218253968253) rotate(0 47 46)"><path d="M94 46 C94 48.18, 93.84 50.39, 93.52 52.55 C93.2 54.71, 92.72 56.87, 92.1 58.96 C91.47 61.05, 90.68 63.12, 89.75 65.11 C88.83 67.09, 87.74 69.03, 86.54 70.87 C85.33 72.71, 83.98 74.47, 82.52 76.12 C81.06 77.77, 79.46 79.34, 77.78 80.76 C76.09 82.19, 74.29 83.52, 72.41 84.7 C70.53 85.88, 68.55 86.94, 66.52 87.84 C64.5 88.75, 62.38 89.52, 60.24 90.14 C58.1 90.75, 55.9 91.22, 53.69 91.53 C51.48 91.84, 49.23 92, 47 92 C44.77 92, 42.52 91.84, 40.31 91.53 C38.1 91.22, 35.9 90.75, 33.76 90.14 C31.62 89.52, 29.5 88.75, 27.48 87.84 C25.45 86.94, 23.47 85.88, 21.59 84.7 C19.71 83.52, 17.91 82.19, 16.22 80.76 C14.54 79.34, 12.94 77.77, 11.48 76.12 C10.02 74.47, 8.67 72.71, 7.46 70.87 C6.26 69.03, 5.17 67.09, 4.25 65.11 C3.32 63.12, 2.53 61.05, 1.9 58.96 C1.28 56.87, 0.8 54.71, 0.48 52.55 C0.16 50.39, 0 48.18, 0 46 C0 43.82, 0.16 41.61, 0.48 39.45 C0.8 37.29, 1.28 35.13, 1.9 33.04 C2.53 30.95, 3.32 28.88, 4.25 26.89 C5.17 24.91, 6.26 22.97, 7.46 21.13 C8.67 19.29, 10.02 17.53, 11.48 15.88 C12.94 14.23, 14.54 12.66, 16.22 11.24 C17.91 9.81, 19.71 8.48, 21.59 7.3 C23.47 6.12, 25.45 5.06, 27.48 4.16 C29.5 3.25, 31.62 2.48, 33.76 1.86 C35.9 1.25, 38.1 0.78, 40.31 0.47 C42.52 0.16, 44.77 0, 47 0 C49.23 0, 51.48 0.16, 53.69 0.47 C55.9 0.78, 58.1 1.25, 60.24 1.86 C62.38 2.48, 64.5 3.25, 66.52 4.16 C68.55 5.06, 70.53 6.12, 72.41 7.3 C74.29 8.48, 76.09 9.81, 77.78 11.24 C79.46 12.66, 81.06 14.23, 82.52 15.88 C83.98 17.53, 85.33 19.29, 86.54 21.13 C87.74 22.97, 88.83 24.91, 89.75 26.89 C90.68 28.88, 91.47 30.95, 92.1 33.04 C92.72 35.13, 93.2 37.29, 93.52 39.45 C93.84 41.61, 93.92 44.91, 94 46 C94.08 47.09, 94.08 44.91, 94 46" stroke="none" stroke-width="0" fill="#162635"></path><path d="M94 46 C94 48.18, 93.84 50.39, 93.52 52.55 C93.2 54.71, 92.72 56.87, 92.1 58.96 C91.47 61.05, 90.68 63.12, 89.75 65.11 C88.83 67.09, 87.74 69.03, 86.54 70.87 C85.33 72.71, 83.98 74.47, 82.52 76.12 C81.06 77.77, 79.46 79.34, 77.78 80.76 C76.09 82.19, 74.29 83.52, 72.41 84.7 C70.53 85.88, 68.55 86.94, 66.52 87.84 C64.5 88.75, 62.38 89.52, 60.24 90.14 C58.1 90.75, 55.9 91.22, 53.69 91.53 C51.48 91.84, 49.23 92, 47 92 C44.77 92, 42.52 91.84, 40.31 91.53 C38.1 91.22, 35.9 90.75, 33.76 90.14 C31.62 89.52, 29.5 88.75, 27.48 87.84 C25.45 86.94, 23.47 85.88, 21.59 84.7 C19.71 83.52, 17.91 82.19, 16.22 80.76 C14.54 79.34, 12.94 77.77, 11.48 76.12 C10.02 74.47, 8.67 72.71, 7.46 70.87 C6.26 69.03, 5.17 67.09, 4.25 65.11 C3.32 63.12, 2.53 61.05, 1.9 58.96 C1.28 56.87, 0.8 54.71, 0.48 52.55 C0.16 50.39, 0 48.18, 0 46 C0 43.82, 0.16 41.61, 0.48 39.45 C0.8 37.29, 1.28 35.13, 1.9 33.04 C2.53 30.95, 3.32 28.88, 4.25 26.89 C5.17 24.91, 6.26 22.97, 7.46 21.13 C8.67 19.29, 10.02 17.53, 11.48 15.88 C12.94 14.23, 14.54 12.66, 16.22 11.24 C17.91 9.81, 19.71 8.48, 21.59 7.3 C23.47 6.12, 25.45 5.06, 27.48 4.16 C29.5 3.25, 31.62 2.48, 33.76 1.86 C35.9 1.25, 38.1 0.78, 40.31 0.47 C42.52 0.16, 44.77 0, 47 0 C49.23 0, 51.48 0.16, 53.69 0.47 C55.9 0.78, 58.1 1.25, 60.24 1.86 C62.38 2.48, 64.5 3.25, 66.52 4.16 C68.55 5.06, 70.53 6.12, 72.41 7.3 C74.29 8.48, 76.09 9.81, 77.78 11.24 C79.46 12.66, 81.06 14.23, 82.52 15.88 C83.98 17.53, 85.33 19.29, 86.54 21.13 C87.74 22.97, 88.83 24.91, 89.75 26.89 C90.68 28.88, 91.47 30.95, 92.1 33.04 C92.72 35.13, 93.2 37.29, 93.52 39.45 C93.84 41.61, 93.92 44.91, 94 46 C94.08 47.09, 94.08 44.91, 94 46" stroke="#162635" stroke-width="1" fill="none"></path></g></svg>