<?xml version="1.0" standalone="no"?>
<!DOCTYPE svg PUBLIC "-//W3C//DTD SVG 1.1//EN" "http://www.w3.org/Graphics/SVG/1.1/DTD/svg11.dtd">
<svg version="1.1" xmlns="http://www.w3.org/2000/svg" viewBox="0 0 721.0648174750529 661" width="1442.1296349501058" height="1322"><!-- svg-source:excalidraw --><metadata></metadata><defs><style class="style-fonts">
      </style></defs><g stroke-linecap="round" transform="translate(338.2405655670266 352.9223613177189) rotate(0 16.757480919737077 16.536772268399375)"><path d="M33.51 16.54 C33.51 17.49, 33.43 18.47, 33.26 19.41 C33.09 20.35, 32.84 21.29, 32.5 22.19 C32.17 23.09, 31.75 23.98, 31.27 24.81 C30.78 25.63, 30.22 26.43, 29.59 27.17 C28.97 27.9, 28.27 28.59, 27.53 29.2 C26.79 29.82, 25.98 30.38, 25.14 30.86 C24.3 31.34, 23.4 31.75, 22.49 32.08 C21.58 32.4, 20.62 32.66, 19.67 32.82 C18.71 32.99, 17.73 33.07, 16.76 33.07 C15.79 33.07, 14.8 32.99, 13.85 32.82 C12.89 32.66, 11.94 32.4, 11.03 32.08 C10.11 31.75, 9.22 31.34, 8.38 30.86 C7.54 30.38, 6.73 29.82, 5.99 29.2 C5.24 28.59, 4.54 27.9, 3.92 27.17 C3.3 26.43, 2.73 25.63, 2.25 24.81 C1.76 23.98, 1.34 23.09, 1.01 22.19 C0.68 21.29, 0.42 20.35, 0.25 19.41 C0.09 18.47, 0 17.49, 0 16.54 C0 15.58, 0.09 14.61, 0.25 13.67 C0.42 12.72, 0.68 11.78, 1.01 10.88 C1.34 9.98, 1.76 9.1, 2.25 8.27 C2.73 7.44, 3.3 6.64, 3.92 5.91 C4.54 5.17, 5.24 4.48, 5.99 3.87 C6.73 3.25, 7.54 2.69, 8.38 2.22 C9.22 1.74, 10.11 1.32, 11.03 1 C11.94 0.67, 12.89 0.42, 13.85 0.25 C14.8 0.09, 15.79 0, 16.76 0 C17.73 0, 18.71 0.09, 19.67 0.25 C20.62 0.42, 21.58 0.67, 22.49 1 C23.4 1.32, 24.3 1.74, 25.14 2.22 C25.98 2.69, 26.79 3.25, 27.53 3.87 C28.27 4.48, 28.97 5.17, 29.59 5.91 C30.22 6.64, 30.78 7.44, 31.27 8.27 C31.75 9.1, 32.17 9.98, 32.5 10.88 C32.84 11.78, 33.09 12.72, 33.26 13.67 C33.43 14.61, 33.47 16.06, 33.51 16.54 C33.56 17.02, 33.56 16.06, 33.51 16.54" stroke="none" stroke-width="0" fill="#5a656f"></path><path d="M33.51 16.54 C33.51 17.49, 33.43 18.47, 33.26 19.41 C33.09 20.35, 32.84 21.29, 32.5 22.19 C32.17 23.09, 31.75 23.98, 31.27 24.81 C30.78 25.63, 30.22 26.43, 29.59 27.17 C28.97 27.9, 28.27 28.59, 27.53 29.2 C26.79 29.82, 25.98 30.38, 25.14 30.86 C24.3 31.34, 23.4 31.75, 22.49 32.08 C21.58 32.4, 20.62 32.66, 19.67 32.82 C18.71 32.99, 17.73 33.07, 16.76 33.07 C15.79 33.07, 14.8 32.99, 13.85 32.82 C12.89 32.66, 11.94 32.4, 11.03 32.08 C10.11 31.75, 9.22 31.34, 8.38 30.86 C7.54 30.38, 6.73 29.82, 5.99 29.2 C5.24 28.59, 4.54 27.9, 3.92 27.17 C3.3 26.43, 2.73 25.63, 2.25 24.81 C1.76 23.98, 1.34 23.09, 1.01 22.19 C0.68 21.29, 0.42 20.35, 0.25 19.41 C0.09 18.47, 0 17.49, 0 16.54 C0 15.58, 0.09 14.61, 0.25 13.67 C0.42 12.72, 0.68 11.78, 1.01 10.88 C1.34 9.98, 1.76 9.1, 2.25 8.27 C2.73 7.44, 3.3 6.64, 3.92 5.91 C4.54 5.17, 5.24 4.48, 5.99 3.87 C6.73 3.25, 7.54 2.69, 8.38 2.22 C9.22 1.74, 10.11 1.32, 11.03 1 C11.94 0.67, 12.89 0.42, 13.85 0.25 C14.8 0.09, 15.79 0, 16.76 0 C17.73 0, 18.71 0.09, 19.67 0.25 C20.62 0.42, 21.58 0.67, 22.49 1 C23.4 1.32, 24.3 1.74, 25.14 2.22 C25.98 2.69, 26.79 3.25, 27.53 3.87 C28.27 4.48, 28.97 5.17, 29.59 5.91 C30.22 6.64, 30.78 7.44, 31.27 8.27 C31.75 9.1, 32.17 9.98, 32.5 10.88 C32.84 11.78, 33.09 12.72, 33.26 13.67 C33.43 14.61, 33.47 16.06, 33.51 16.54 C33.56 17.02, 33.56 16.06, 33.51 16.54" stroke="#5a656f" stroke-width="1" fill="none"></path></g><g stroke-linecap="round" transform="translate(521.6737945787374 591) rotate(0 30 30)"><path d="M60 30 C60 31.74, 59.85 33.5, 59.54 35.21 C59.24 36.92, 58.78 38.63, 58.19 40.26 C57.6 41.89, 56.85 43.5, 55.98 45 C55.11 46.5, 54.1 47.95, 52.98 49.28 C51.87 50.61, 50.61 51.87, 49.28 52.98 C47.95 54.1, 46.5 55.11, 45 55.98 C43.5 56.85, 41.89 57.6, 40.26 58.19 C38.63 58.78, 36.92 59.24, 35.21 59.54 C33.5 59.85, 31.74 60, 30 60 C28.26 60, 26.5 59.85, 24.79 59.54 C23.08 59.24, 21.37 58.78, 19.74 58.19 C18.11 57.6, 16.5 56.85, 15 55.98 C13.5 55.11, 12.05 54.1, 10.72 52.98 C9.39 51.87, 8.13 50.61, 7.02 49.28 C5.9 47.95, 4.89 46.5, 4.02 45 C3.15 43.5, 2.4 41.89, 1.81 40.26 C1.22 38.63, 0.76 36.92, 0.46 35.21 C0.15 33.5, 0 31.74, 0 30 C0 28.26, 0.15 26.5, 0.46 24.79 C0.76 23.08, 1.22 21.37, 1.81 19.74 C2.4 18.11, 3.15 16.5, 4.02 15 C4.89 13.5, 5.9 12.05, 7.02 10.72 C8.13 9.39, 9.39 8.13, 10.72 7.02 C12.05 5.9, 13.5 4.89, 15 4.02 C16.5 3.15, 18.11 2.4, 19.74 1.81 C21.37 1.22, 23.08 0.76, 24.79 0.46 C26.5 0.15, 28.26 0, 30 0 C31.74 0, 33.5 0.15, 35.21 0.46 C36.92 0.76, 38.63 1.22, 40.26 1.81 C41.89 2.4, 43.5 3.15, 45 4.02 C46.5 4.89, 47.95 5.9, 49.28 7.02 C50.61 8.13, 51.87 9.39, 52.98 10.72 C54.1 12.05, 55.11 13.5, 55.98 15 C56.85 16.5, 57.6 18.11, 58.19 19.74 C58.78 21.37, 59.24 23.08, 59.54 24.79 C59.85 26.5, 59.92 29.13, 60 30 C60.08 30.87, 60.08 29.13, 60 30" stroke="none" stroke-width="0" fill="#91989e"></path><path d="M60 30 C60 31.74, 59.85 33.5, 59.54 35.21 C59.24 36.92, 58.78 38.63, 58.19 40.26 C57.6 41.89, 56.85 43.5, 55.98 45 C55.11 46.5, 54.1 47.95, 52.98 49.28 C51.87 50.61, 50.61 51.87, 49.28 52.98 C47.95 54.1, 46.5 55.11, 45 55.98 C43.5 56.85, 41.89 57.6, 40.26 58.19 C38.63 58.78, 36.92 59.24, 35.21 59.54 C33.5 59.85, 31.74 60, 30 60 C28.26 60, 26.5 59.85, 24.79 59.54 C23.08 59.24, 21.37 58.78, 19.74 58.19 C18.11 57.6, 16.5 56.85, 15 55.98 C13.5 55.11, 12.05 54.1, 10.72 52.98 C9.39 51.87, 8.13 50.61, 7.02 49.28 C5.9 47.95, 4.89 46.5, 4.02 45 C3.15 43.5, 2.4 41.89, 1.81 40.26 C1.22 38.63, 0.76 36.92, 0.46 35.21 C0.15 33.5, 0 31.74, 0 30 C0 28.26, 0.15 26.5, 0.46 24.79 C0.76 23.08, 1.22 21.37, 1.81 19.74 C2.4 18.11, 3.15 16.5, 4.02 15 C4.89 13.5, 5.9 12.05, 7.02 10.72 C8.13 9.39, 9.39 8.13, 10.72 7.02 C12.05 5.9, 13.5 4.89, 15 4.02 C16.5 3.15, 18.11 2.4, 19.74 1.81 C21.37 1.22, 23.08 0.76, 24.79 0.46 C26.5 0.15, 28.26 0, 30 0 C31.74 0, 33.5 0.15, 35.21 0.46 C36.92 0.76, 38.63 1.22, 40.26 1.81 C41.89 2.4, 43.5 3.15, 45 4.02 C46.5 4.89, 47.95 5.9, 49.28 7.02 C50.61 8.13, 51.87 9.39, 52.98 10.72 C54.1 12.05, 55.11 13.5, 55.98 15 C56.85 16.5, 57.6 18.11, 58.19 19.74 C58.78 21.37, 59.24 23.08, 59.54 24.79 C59.85 26.5, 59.92 29.13, 60 30 C60.08 30.87, 60.08 29.13, 60 30" stroke="#91989e" stroke-width="1" fill="none"></path></g><g stroke-linecap="round" transform="translate(293.9435579349215 499.2384249347806) rotate(0 25.365118321908028 25.36511832190797)"><path d="M50.73 25.37 C50.73 26.83, 50.6 28.32, 50.34 29.77 C50.09 31.22, 49.7 32.66, 49.2 34.04 C48.7 35.42, 48.07 36.78, 47.33 38.05 C46.6 39.32, 45.74 40.54, 44.8 41.67 C43.85 42.79, 42.79 43.85, 41.67 44.8 C40.54 45.74, 39.32 46.6, 38.05 47.33 C36.78 48.07, 35.42 48.7, 34.04 49.2 C32.66 49.7, 31.22 50.09, 29.77 50.34 C28.32 50.6, 26.83 50.73, 25.37 50.73 C23.9 50.73, 22.41 50.6, 20.96 50.34 C19.51 50.09, 18.07 49.7, 16.69 49.2 C15.31 48.7, 13.95 48.07, 12.68 47.33 C11.41 46.6, 10.19 45.74, 9.06 44.8 C7.94 43.85, 6.88 42.79, 5.93 41.67 C4.99 40.54, 4.13 39.32, 3.4 38.05 C2.66 36.78, 2.03 35.42, 1.53 34.04 C1.03 32.66, 0.64 31.22, 0.39 29.77 C0.13 28.32, 0 26.83, 0 25.37 C0 23.9, 0.13 22.41, 0.39 20.96 C0.64 19.51, 1.03 18.07, 1.53 16.69 C2.03 15.31, 2.66 13.95, 3.4 12.68 C4.13 11.41, 4.99 10.19, 5.93 9.06 C6.88 7.94, 7.94 6.88, 9.06 5.93 C10.19 4.99, 11.41 4.13, 12.68 3.4 C13.95 2.66, 15.31 2.03, 16.69 1.53 C18.07 1.03, 19.51 0.64, 20.96 0.39 C22.41 0.13, 23.9 0, 25.37 0 C26.83 0, 28.32 0.13, 29.77 0.39 C31.22 0.64, 32.66 1.03, 34.04 1.53 C35.42 2.03, 36.78 2.66, 38.05 3.4 C39.32 4.13, 40.54 4.99, 41.67 5.93 C42.79 6.88, 43.85 7.94, 44.8 9.06 C45.74 10.19, 46.6 11.41, 47.33 12.68 C48.07 13.95, 48.7 15.31, 49.2 16.69 C49.7 18.07, 50.09 19.51, 50.34 20.96 C50.6 22.41, 50.67 24.63, 50.73 25.37 C50.79 26.1, 50.79 24.63, 50.73 25.37" stroke="none" stroke-width="0" fill="#162635"></path><path d="M50.73 25.37 C50.73 26.83, 50.6 28.32, 50.34 29.77 C50.09 31.22, 49.7 32.66, 49.2 34.04 C48.7 35.42, 48.07 36.78, 47.33 38.05 C46.6 39.32, 45.74 40.54, 44.8 41.67 C43.85 42.79, 42.79 43.85, 41.67 44.8 C40.54 45.74, 39.32 46.6, 38.05 47.33 C36.78 48.07, 35.42 48.7, 34.04 49.2 C32.66 49.7, 31.22 50.09, 29.77 50.34 C28.32 50.6, 26.83 50.73, 25.37 50.73 C23.9 50.73, 22.41 50.6, 20.96 50.34 C19.51 50.09, 18.07 49.7, 16.69 49.2 C15.31 48.7, 13.95 48.07, 12.68 47.33 C11.41 46.6, 10.19 45.74, 9.06 44.8 C7.94 43.85, 6.88 42.79, 5.93 41.67 C4.99 40.54, 4.13 39.32, 3.4 38.05 C2.66 36.78, 2.03 35.42, 1.53 34.04 C1.03 32.66, 0.64 31.22, 0.39 29.77 C0.13 28.32, 0 26.83, 0 25.37 C0 23.9, 0.13 22.41, 0.39 20.96 C0.64 19.51, 1.03 18.07, 1.53 16.69 C2.03 15.31, 2.66 13.95, 3.4 12.68 C4.13 11.41, 4.99 10.19, 5.93 9.06 C6.88 7.94, 7.94 6.88, 9.06 5.93 C10.19 4.99, 11.41 4.13, 12.68 3.4 C13.95 2.66, 15.31 2.03, 16.69 1.53 C18.07 1.03, 19.51 0.64, 20.96 0.39 C22.41 0.13, 23.9 0, 25.37 0 C26.83 0, 28.32 0.13, 29.77 0.39 C31.22 0.64, 32.66 1.03, 34.04 1.53 C35.42 2.03, 36.78 2.66, 38.05 3.4 C39.32 4.13, 40.54 4.99, 41.67 5.93 C42.79 6.88, 43.85 7.94, 44.8 9.06 C45.74 10.19, 46.6 11.41, 47.33 12.68 C48.07 13.95, 48.7 15.31, 49.2 16.69 C49.7 18.07, 50.09 19.51, 50.34 20.96 C50.6 22.41, 50.67 24.63, 50.73 25.37 C50.79 26.1, 50.79 24.63, 50.73 25.37" stroke="#162635" stroke-width="1" fill="none"></path></g><g stroke-linecap="round" transform="translate(632.5252907626848 437.5817328277634) rotate(0 39.26976335618406 39.49047200752176)"><path d="M78.54 39.49 C78.54 41.36, 78.4 43.26, 78.14 45.11 C77.87 46.96, 77.47 48.82, 76.95 50.62 C76.42 52.41, 75.76 54.19, 74.99 55.9 C74.22 57.6, 73.31 59.26, 72.31 60.84 C71.3 62.42, 70.17 63.94, 68.95 65.35 C67.73 66.77, 66.39 68.11, 64.99 69.34 C63.58 70.56, 62.07 71.7, 60.5 72.71 C58.93 73.72, 57.28 74.63, 55.58 75.41 C53.89 76.19, 52.12 76.85, 50.33 77.38 C48.55 77.91, 46.7 78.31, 44.86 78.58 C43.01 78.85, 41.13 78.98, 39.27 78.98 C37.41 78.98, 35.53 78.85, 33.68 78.58 C31.84 78.31, 29.99 77.91, 28.21 77.38 C26.42 76.85, 24.65 76.19, 22.96 75.41 C21.26 74.63, 19.61 73.72, 18.04 72.71 C16.47 71.7, 14.96 70.56, 13.55 69.34 C12.15 68.11, 10.81 66.77, 9.59 65.35 C8.37 63.94, 7.24 62.42, 6.23 60.84 C5.23 59.26, 4.32 57.6, 3.55 55.9 C2.77 54.19, 2.12 52.41, 1.59 50.62 C1.07 48.82, 0.66 46.96, 0.4 45.11 C0.13 43.26, 0 41.36, 0 39.49 C0 37.62, 0.13 35.72, 0.4 33.87 C0.66 32.02, 1.07 30.16, 1.59 28.36 C2.12 26.57, 2.77 24.79, 3.55 23.09 C4.32 21.38, 5.23 19.72, 6.23 18.14 C7.24 16.56, 8.37 15.05, 9.59 13.63 C10.81 12.21, 12.15 10.87, 13.55 9.65 C14.96 8.42, 16.47 7.28, 18.04 6.27 C19.61 5.26, 21.26 4.35, 22.96 3.57 C24.65 2.79, 26.42 2.13, 28.21 1.6 C29.99 1.07, 31.84 0.67, 33.68 0.4 C35.53 0.14, 37.41 0, 39.27 0 C41.13 0, 43.01 0.14, 44.86 0.4 C46.7 0.67, 48.55 1.07, 50.33 1.6 C52.12 2.13, 53.89 2.79, 55.58 3.57 C57.28 4.35, 58.93 5.26, 60.5 6.27 C62.07 7.28, 63.58 8.42, 64.99 9.65 C66.39 10.87, 67.73 12.21, 68.95 13.63 C70.17 15.05, 71.3 16.56, 72.31 18.14 C73.31 19.72, 74.22 21.38, 74.99 23.09 C75.76 24.79, 76.42 26.57, 76.95 28.36 C77.47 30.16, 77.87 32.02, 78.14 33.87 C78.4 35.72, 78.47 38.55, 78.54 39.49 C78.61 40.43, 78.61 38.55, 78.54 39.49" stroke="none" stroke-width="0" fill="#162635"></path><path d="M78.54 39.49 C78.54 41.36, 78.4 43.26, 78.14 45.11 C77.87 46.96, 77.47 48.82, 76.95 50.62 C76.42 52.41, 75.76 54.19, 74.99 55.9 C74.22 57.6, 73.31 59.26, 72.31 60.84 C71.3 62.42, 70.17 63.94, 68.95 65.35 C67.73 66.77, 66.39 68.11, 64.99 69.34 C63.58 70.56, 62.07 71.7, 60.5 72.71 C58.93 73.72, 57.28 74.63, 55.58 75.41 C53.89 76.19, 52.12 76.85, 50.33 77.38 C48.55 77.91, 46.7 78.31, 44.86 78.58 C43.01 78.85, 41.13 78.98, 39.27 78.98 C37.41 78.98, 35.53 78.85, 33.68 78.58 C31.84 78.31, 29.99 77.91, 28.21 77.38 C26.42 76.85, 24.65 76.19, 22.96 75.41 C21.26 74.63, 19.61 73.72, 18.04 72.71 C16.47 71.7, 14.96 70.56, 13.55 69.34 C12.15 68.11, 10.81 66.77, 9.59 65.35 C8.37 63.94, 7.24 62.42, 6.23 60.84 C5.23 59.26, 4.32 57.6, 3.55 55.9 C2.77 54.19, 2.12 52.41, 1.59 50.62 C1.07 48.82, 0.66 46.96, 0.4 45.11 C0.13 43.26, 0 41.36, 0 39.49 C0 37.62, 0.13 35.72, 0.4 33.87 C0.66 32.02, 1.07 30.16, 1.59 28.36 C2.12 26.57, 2.77 24.79, 3.55 23.09 C4.32 21.38, 5.23 19.72, 6.23 18.14 C7.24 16.56, 8.37 15.05, 9.59 13.63 C10.81 12.21, 12.15 10.87, 13.55 9.65 C14.96 8.42, 16.47 7.28, 18.04 6.27 C19.61 5.26, 21.26 4.35, 22.96 3.57 C24.65 2.79, 26.42 2.13, 28.21 1.6 C29.99 1.07, 31.84 0.67, 33.68 0.4 C35.53 0.14, 37.41 0, 39.27 0 C41.13 0, 43.01 0.14, 44.86 0.4 C46.7 0.67, 48.55 1.07, 50.33 1.6 C52.12 2.13, 53.89 2.79, 55.58 3.57 C57.28 4.35, 58.93 5.26, 60.5 6.27 C62.07 7.28, 63.58 8.42, 64.99 9.65 C66.39 10.87, 67.73 12.21, 68.95 13.63 C70.17 15.05, 71.3 16.56, 72.31 18.14 C73.31 19.72, 74.22 21.38, 74.99 23.09 C75.76 24.79, 76.42 26.57, 76.95 28.36 C77.47 30.16, 77.87 32.02, 78.14 33.87 C78.4 35.72, 78.47 38.55, 78.54 39.49 C78.61 40.43, 78.61 38.55, 78.54 39.49" stroke="#162635" stroke-width="1" fill="none"></path></g><g stroke-linecap="round" transform="translate(338.6502283926566 391.31711343331557) rotate(12.972713964031644 0.11523786360248778 51.01858555858249)"><path d="M0 0 L0.23 0 L0.23 102.04 L0 102.04" stroke="none" stroke-width="0" fill="#888888"></path><path d="M0 0 C0.08 0, 0.16 0, 0.23 0 M0 0 C0.06 0, 0.12 0, 0.23 0 M0.23 0 C0.23 36.13, 0.23 72.27, 0.23 102.04 M0.23 0 C0.23 24.26, 0.23 48.52, 0.23 102.04 M0.23 102.04 C0.16 102.04, 0.08 102.04, 0 102.04 M0.23 102.04 C0.18 102.04, 0.13 102.04, 0 102.04 M0 102.04 C0 75.03, 0 48.01, 0 0 M0 102.04 C0 80.93, 0 59.83, 0 0" stroke="#888888" stroke-width="4" fill="none"></path></g><g stroke-linecap="round" transform="translate(433.35210440640617 480.4501009339841) rotate(293.2387541248831 0.05304767600586047 89.43513654897725)"><path d="M0 0 L0.11 0 L0.11 178.87 L0 178.87" stroke="none" stroke-width="0" fill="#888888"></path><path d="M0 0 C0.03 0, 0.06 0, 0.11 0 M0 0 C0.03 0, 0.06 0, 0.11 0 M0.11 0 C0.11 53.62, 0.11 107.24, 0.11 178.87 M0.11 0 C0.11 65.81, 0.11 131.62, 0.11 178.87 M0.11 178.87 C0.08 178.87, 0.05 178.87, 0 178.87 M0.11 178.87 C0.08 178.87, 0.05 178.87, 0 178.87 M0 178.87 C0 129.73, 0 80.6, 0 0 M0 178.87 C0 119.66, 0 60.45, 0 0" stroke="#888888" stroke-width="4" fill="none"></path></g><g stroke-linecap="round" transform="translate(608.9267218600678 503.963251732243) rotate(38.13000769178588 0.34665167556113374 49.95861165963794)"><path d="M0 0 L0.69 0 L0.69 99.92 L0 99.92" stroke="none" stroke-width="0" fill="#888888"></path><path d="M0 0 C0.22 0, 0.44 0, 0.69 0 M0 0 C0.22 0, 0.44 0, 0.69 0 M0.69 0 C0.69 39.86, 0.69 79.72, 0.69 99.92 M0.69 0 C0.69 27.88, 0.69 55.76, 0.69 99.92 M0.69 99.92 C0.44 99.92, 0.19 99.92, 0 99.92 M0.69 99.92 C0.52 99.92, 0.34 99.92, 0 99.92 M0 99.92 C0 75.45, 0 50.97, 0 0 M0 99.92 C0 78.31, 0 56.71, 0 0" stroke="#888888" stroke-width="4" fill="none"></path></g><g stroke-linecap="round" transform="translate(503.65970438218824 289.74355650917016) rotate(288.6886713508418 0.5550312632684609 128.8142568377305)"><path d="M0 0 L1.11 0 L1.11 257.63 L0 257.63" stroke="none" stroke-width="0" fill="#888888"></path><path d="M0 0 C0.4 0, 0.79 0, 1.11 0 M0 0 C0.36 0, 0.71 0, 1.11 0 M1.11 0 C1.11 75.69, 1.11 151.39, 1.11 257.63 M1.11 0 C1.11 55.64, 1.11 111.28, 1.11 257.63 M1.11 257.63 C0.77 257.63, 0.44 257.63, 0 257.63 M1.11 257.63 C0.67 257.63, 0.24 257.63, 0 257.63 M0 257.63 C0 161.27, 0 64.92, 0 0 M0 257.63 C0 194.66, 0 131.68, 0 0" stroke="#888888" stroke-width="4" fill="none"></path></g><g stroke-linecap="round" transform="translate(213.16250718580295 209.76842921616918) rotate(0 25.806535624583432 25.585826973245673)"><path d="M51.61 25.59 C51.61 27.07, 51.48 28.57, 51.22 30.03 C50.96 31.49, 50.57 32.95, 50.06 34.34 C49.55 35.73, 48.9 37.1, 48.16 38.38 C47.41 39.66, 46.54 40.9, 45.58 42.03 C44.62 43.17, 43.54 44.23, 42.39 45.19 C41.25 46.14, 40 47, 38.71 47.74 C37.42 48.48, 36.04 49.12, 34.63 49.63 C33.23 50.14, 31.76 50.53, 30.29 50.78 C28.82 51.04, 27.3 51.17, 25.81 51.17 C24.31 51.17, 22.8 51.04, 21.33 50.78 C19.85 50.53, 18.38 50.14, 16.98 49.63 C15.58 49.12, 14.2 48.48, 12.9 47.74 C11.61 47, 10.36 46.14, 9.22 45.19 C8.07 44.23, 7 43.17, 6.04 42.03 C5.08 40.9, 4.2 39.66, 3.46 38.38 C2.71 37.1, 2.07 35.73, 1.56 34.34 C1.05 32.95, 0.65 31.49, 0.39 30.03 C0.13 28.57, 0 27.07, 0 25.59 C0 24.1, 0.13 22.6, 0.39 21.14 C0.65 19.68, 1.05 18.23, 1.56 16.83 C2.07 15.44, 2.71 14.08, 3.46 12.79 C4.2 11.51, 5.08 10.27, 6.04 9.14 C7 8.01, 8.07 6.94, 9.22 5.99 C10.36 5.03, 11.61 4.17, 12.9 3.43 C14.2 2.69, 15.58 2.05, 16.98 1.54 C18.38 1.04, 19.85 0.65, 21.33 0.39 C22.8 0.13, 24.31 0, 25.81 0 C27.3 0, 28.82 0.13, 30.29 0.39 C31.76 0.65, 33.23 1.04, 34.63 1.54 C36.04 2.05, 37.42 2.69, 38.71 3.43 C40 4.17, 41.25 5.03, 42.39 5.99 C43.54 6.94, 44.62 8.01, 45.58 9.14 C46.54 10.27, 47.41 11.51, 48.16 12.79 C48.9 14.08, 49.55 15.44, 50.06 16.83 C50.57 18.23, 50.96 19.68, 51.22 21.14 C51.48 22.6, 51.55 24.85, 51.61 25.59 C51.68 26.33, 51.68 24.85, 51.61 25.59" stroke="none" stroke-width="0" fill="#a0a6ab"></path><path d="M51.61 25.59 C51.61 27.07, 51.48 28.57, 51.22 30.03 C50.96 31.49, 50.57 32.95, 50.06 34.34 C49.55 35.73, 48.9 37.1, 48.16 38.38 C47.41 39.66, 46.54 40.9, 45.58 42.03 C44.62 43.17, 43.54 44.23, 42.39 45.19 C41.25 46.14, 40 47, 38.71 47.74 C37.42 48.48, 36.04 49.12, 34.63 49.63 C33.23 50.14, 31.76 50.53, 30.29 50.78 C28.82 51.04, 27.3 51.17, 25.81 51.17 C24.31 51.17, 22.8 51.04, 21.33 50.78 C19.85 50.53, 18.38 50.14, 16.98 49.63 C15.58 49.12, 14.2 48.48, 12.9 47.74 C11.61 47, 10.36 46.14, 9.22 45.19 C8.07 44.23, 7 43.17, 6.04 42.03 C5.08 40.9, 4.2 39.66, 3.46 38.38 C2.71 37.1, 2.07 35.73, 1.56 34.34 C1.05 32.95, 0.65 31.49, 0.39 30.03 C0.13 28.57, 0 27.07, 0 25.59 C0 24.1, 0.13 22.6, 0.39 21.14 C0.65 19.68, 1.05 18.23, 1.56 16.83 C2.07 15.44, 2.71 14.08, 3.46 12.79 C4.2 11.51, 5.08 10.27, 6.04 9.14 C7 8.01, 8.07 6.94, 9.22 5.99 C10.36 5.03, 11.61 4.17, 12.9 3.43 C14.2 2.69, 15.58 2.05, 16.98 1.54 C18.38 1.04, 19.85 0.65, 21.33 0.39 C22.8 0.13, 24.31 0, 25.81 0 C27.3 0, 28.82 0.13, 30.29 0.39 C31.76 0.65, 33.23 1.04, 34.63 1.54 C36.04 2.05, 37.42 2.69, 38.71 3.43 C40 4.17, 41.25 5.03, 42.39 5.99 C43.54 6.94, 44.62 8.01, 45.58 9.14 C46.54 10.27, 47.41 11.51, 48.16 12.79 C48.9 14.08, 49.55 15.44, 50.06 16.83 C50.57 18.23, 50.96 19.68, 51.22 21.14 C51.48 22.6, 51.55 24.85, 51.61 25.59 C51.68 26.33, 51.68 24.85, 51.61 25.59" stroke="#a0a6ab" stroke-width="1" fill="none"></path></g><g stroke-linecap="round" transform="translate(139.85977295634746 57.04986327849451) rotate(0 39.51585778318173 39.43521999515683)"><path d="M79.03 39.44 C79.03 41.31, 78.9 43.2, 78.63 45.05 C78.36 46.9, 77.96 48.75, 77.43 50.55 C76.9 52.34, 76.24 54.12, 75.46 55.82 C74.68 57.52, 73.77 59.18, 72.76 60.76 C71.75 62.33, 70.61 63.85, 69.38 65.26 C68.15 66.67, 66.81 68.01, 65.39 69.24 C63.98 70.46, 62.46 71.6, 60.88 72.61 C59.3 73.62, 57.64 74.53, 55.93 75.31 C54.23 76.08, 52.45 76.75, 50.65 77.27 C48.85 77.8, 47 78.2, 45.14 78.47 C43.28 78.74, 41.39 78.87, 39.52 78.87 C37.64 78.87, 35.75 78.74, 33.89 78.47 C32.04 78.2, 30.18 77.8, 28.38 77.27 C26.58 76.75, 24.81 76.08, 23.1 75.31 C21.4 74.53, 19.73 73.62, 18.15 72.61 C16.57 71.6, 15.06 70.46, 13.64 69.24 C12.22 68.01, 10.88 66.67, 9.65 65.26 C8.42 63.85, 7.29 62.33, 6.27 60.76 C5.26 59.18, 4.35 57.52, 3.57 55.82 C2.79 54.12, 2.13 52.34, 1.6 50.55 C1.07 48.75, 0.67 46.9, 0.4 45.05 C0.14 43.2, 0 41.31, 0 39.44 C0 37.56, 0.14 35.67, 0.4 33.82 C0.67 31.97, 1.07 30.12, 1.6 28.33 C2.13 26.53, 2.79 24.75, 3.57 23.05 C4.35 21.35, 5.26 19.69, 6.27 18.11 C7.29 16.54, 8.42 15.02, 9.65 13.61 C10.88 12.2, 12.22 10.86, 13.64 9.63 C15.06 8.41, 16.57 7.27, 18.15 6.26 C19.73 5.25, 21.4 4.34, 23.1 3.56 C24.81 2.79, 26.58 2.12, 28.38 1.6 C30.18 1.07, 32.04 0.67, 33.89 0.4 C35.75 0.14, 37.64 0, 39.52 0 C41.39 0, 43.28 0.14, 45.14 0.4 C47 0.67, 48.85 1.07, 50.65 1.6 C52.45 2.12, 54.23 2.79, 55.93 3.56 C57.64 4.34, 59.3 5.25, 60.88 6.26 C62.46 7.27, 63.98 8.41, 65.39 9.63 C66.81 10.86, 68.15 12.2, 69.38 13.61 C70.61 15.02, 71.75 16.54, 72.76 18.11 C73.77 19.69, 74.68 21.35, 75.46 23.05 C76.24 24.75, 76.9 26.53, 77.43 28.33 C77.96 30.12, 78.36 31.97, 78.63 33.82 C78.9 35.67, 78.96 38.5, 79.03 39.44 C79.1 40.37, 79.1 38.5, 79.03 39.44" stroke="none" stroke-width="0" fill="#162635"></path><path d="M79.03 39.44 C79.03 41.31, 78.9 43.2, 78.63 45.05 C78.36 46.9, 77.96 48.75, 77.43 50.55 C76.9 52.34, 76.24 54.12, 75.46 55.82 C74.68 57.52, 73.77 59.18, 72.76 60.76 C71.75 62.33, 70.61 63.85, 69.38 65.26 C68.15 66.67, 66.81 68.01, 65.39 69.24 C63.98 70.46, 62.46 71.6, 60.88 72.61 C59.3 73.62, 57.64 74.53, 55.93 75.31 C54.23 76.08, 52.45 76.75, 50.65 77.27 C48.85 77.8, 47 78.2, 45.14 78.47 C43.28 78.74, 41.39 78.87, 39.52 78.87 C37.64 78.87, 35.75 78.74, 33.89 78.47 C32.04 78.2, 30.18 77.8, 28.38 77.27 C26.58 76.75, 24.81 76.08, 23.1 75.31 C21.4 74.53, 19.73 73.62, 18.15 72.61 C16.57 71.6, 15.06 70.46, 13.64 69.24 C12.22 68.01, 10.88 66.67, 9.65 65.26 C8.42 63.85, 7.29 62.33, 6.27 60.76 C5.26 59.18, 4.35 57.52, 3.57 55.82 C2.79 54.12, 2.13 52.34, 1.6 50.55 C1.07 48.75, 0.67 46.9, 0.4 45.05 C0.14 43.2, 0 41.31, 0 39.44 C0 37.56, 0.14 35.67, 0.4 33.82 C0.67 31.97, 1.07 30.12, 1.6 28.33 C2.13 26.53, 2.79 24.75, 3.57 23.05 C4.35 21.35, 5.26 19.69, 6.27 18.11 C7.29 16.54, 8.42 15.02, 9.65 13.61 C10.88 12.2, 12.22 10.86, 13.64 9.63 C15.06 8.41, 16.57 7.27, 18.15 6.26 C19.73 5.25, 21.4 4.34, 23.1 3.56 C24.81 2.79, 26.58 2.12, 28.38 1.6 C30.18 1.07, 32.04 0.67, 33.89 0.4 C35.75 0.14, 37.64 0, 39.52 0 C41.39 0, 43.28 0.14, 45.14 0.4 C47 0.67, 48.85 1.07, 50.65 1.6 C52.45 2.12, 54.23 2.79, 55.93 3.56 C57.64 4.34, 59.3 5.25, 60.88 6.26 C62.46 7.27, 63.98 8.41, 65.39 9.63 C66.81 10.86, 68.15 12.2, 69.38 13.61 C70.61 15.02, 71.75 16.54, 72.76 18.11 C73.77 19.69, 74.68 21.35, 75.46 23.05 C76.24 24.75, 76.9 26.53, 77.43 28.33 C77.96 30.12, 78.36 31.97, 78.63 33.82 C78.9 35.67, 78.96 38.5, 79.03 39.44 C79.1 40.37, 79.1 38.5, 79.03 39.44" stroke="#162635" stroke-width="1" fill="none"></path></g><g stroke-linecap="round" transform="translate(10 10) rotate(0 30 30)"><path d="M60 30 C60 31.74, 59.85 33.5, 59.54 35.21 C59.24 36.92, 58.78 38.63, 58.19 40.26 C57.6 41.89, 56.85 43.5, 55.98 45 C55.11 46.5, 54.1 47.95, 52.98 49.28 C51.87 50.61, 50.61 51.87, 49.28 52.98 C47.95 54.1, 46.5 55.11, 45 55.98 C43.5 56.85, 41.89 57.6, 40.26 58.19 C38.63 58.78, 36.92 59.24, 35.21 59.54 C33.5 59.85, 31.74 60, 30 60 C28.26 60, 26.5 59.85, 24.79 59.54 C23.08 59.24, 21.37 58.78, 19.74 58.19 C18.11 57.6, 16.5 56.85, 15 55.98 C13.5 55.11, 12.05 54.1, 10.72 52.98 C9.39 51.87, 8.13 50.61, 7.02 49.28 C5.9 47.95, 4.89 46.5, 4.02 45 C3.15 43.5, 2.4 41.89, 1.81 40.26 C1.22 38.63, 0.76 36.92, 0.46 35.21 C0.15 33.5, 0 31.74, 0 30 C0 28.26, 0.15 26.5, 0.46 24.79 C0.76 23.08, 1.22 21.37, 1.81 19.74 C2.4 18.11, 3.15 16.5, 4.02 15 C4.89 13.5, 5.9 12.05, 7.02 10.72 C8.13 9.39, 9.39 8.13, 10.72 7.02 C12.05 5.9, 13.5 4.89, 15 4.02 C16.5 3.15, 18.11 2.4, 19.74 1.81 C21.37 1.22, 23.08 0.76, 24.79 0.46 C26.5 0.15, 28.26 0, 30 0 C31.74 0, 33.5 0.15, 35.21 0.46 C36.92 0.76, 38.63 1.22, 40.26 1.81 C41.89 2.4, 43.5 3.15, 45 4.02 C46.5 4.89, 47.95 5.9, 49.28 7.02 C50.61 8.13, 51.87 9.39, 52.98 10.72 C54.1 12.05, 55.11 13.5, 55.98 15 C56.85 16.5, 57.6 18.11, 58.19 19.74 C58.78 21.37, 59.24 23.08, 59.54 24.79 C59.85 26.5, 59.92 29.13, 60 30 C60.08 30.87, 60.08 29.13, 60 30" stroke="none" stroke-width="0" fill="#5a656f"></path><path d="M60 30 C60 31.74, 59.85 33.5, 59.54 35.21 C59.24 36.92, 58.78 38.63, 58.19 40.26 C57.6 41.89, 56.85 43.5, 55.98 45 C55.11 46.5, 54.1 47.95, 52.98 49.28 C51.87 50.61, 50.61 51.87, 49.28 52.98 C47.95 54.1, 46.5 55.11, 45 55.98 C43.5 56.85, 41.89 57.6, 40.26 58.19 C38.63 58.78, 36.92 59.24, 35.21 59.54 C33.5 59.85, 31.74 60, 30 60 C28.26 60, 26.5 59.85, 24.79 59.54 C23.08 59.24, 21.37 58.78, 19.74 58.19 C18.11 57.6, 16.5 56.85, 15 55.98 C13.5 55.11, 12.05 54.1, 10.72 52.98 C9.39 51.87, 8.13 50.61, 7.02 49.28 C5.9 47.95, 4.89 46.5, 4.02 45 C3.15 43.5, 2.4 41.89, 1.81 40.26 C1.22 38.63, 0.76 36.92, 0.46 35.21 C0.15 33.5, 0 31.74, 0 30 C0 28.26, 0.15 26.5, 0.46 24.79 C0.76 23.08, 1.22 21.37, 1.81 19.74 C2.4 18.11, 3.15 16.5, 4.02 15 C4.89 13.5, 5.9 12.05, 7.02 10.72 C8.13 9.39, 9.39 8.13, 10.72 7.02 C12.05 5.9, 13.5 4.89, 15 4.02 C16.5 3.15, 18.11 2.4, 19.74 1.81 C21.37 1.22, 23.08 0.76, 24.79 0.46 C26.5 0.15, 28.26 0, 30 0 C31.74 0, 33.5 0.15, 35.21 0.46 C36.92 0.76, 38.63 1.22, 40.26 1.81 C41.89 2.4, 43.5 3.15, 45 4.02 C46.5 4.89, 47.95 5.9, 49.28 7.02 C50.61 8.13, 51.87 9.39, 52.98 10.72 C54.1 12.05, 55.11 13.5, 55.98 15 C56.85 16.5, 57.6 18.11, 58.19 19.74 C58.78 21.37, 59.24 23.08, 59.54 24.79 C59.85 26.5, 59.92 29.13, 60 30 C60.08 30.87, 60.08 29.13, 60 30" stroke="#5a656f" stroke-width="1" fill="none"></path></g><g stroke-linecap="round" transform="translate(298.15357053523167 248.55830606562859) rotate(318.7136304756191 0.22374793223337974 58.81548034118296)"><path d="M0 0 L0.45 0 L0.45 117.63 L0 117.63" stroke="none" stroke-width="0" fill="#888888"></path><path d="M0 0 C0.13 0, 0.25 0, 0.45 0 M0 0 C0.1 0, 0.21 0, 0.45 0 M0.45 0 C0.45 42.62, 0.45 85.25, 0.45 117.63 M0.45 0 C0.45 41.84, 0.45 83.67, 0.45 117.63 M0.45 117.63 C0.33 117.63, 0.21 117.63, 0 117.63 M0.45 117.63 C0.33 117.63, 0.21 117.63, 0 117.63 M0 117.63 C0 78.03, 0 38.43, 0 0 M0 117.63 C0 74.52, 0 31.42, 0 0" stroke="#888888" stroke-width="4" fill="none"></path></g><g stroke-linecap="round" transform="translate(103.68418001210654 32.7259940338991) rotate(288.7341113040231 0.3003263364505244 31.681540892578607)"><path d="M0 0 L0.6 0 L0.6 63.36 L0 63.36" stroke="none" stroke-width="0" fill="#888888"></path><path d="M0 0 C0.18 0, 0.36 0, 0.6 0 M0 0 C0.18 0, 0.36 0, 0.6 0 M0.6 0 C0.6 20.39, 0.6 40.77, 0.6 63.36 M0.6 0 C0.6 18.3, 0.6 36.61, 0.6 63.36 M0.6 63.36 C0.48 63.36, 0.36 63.36, 0 63.36 M0.6 63.36 C0.38 63.36, 0.16 63.36, 0 63.36 M0 63.36 C0 43.88, 0 24.39, 0 0 M0 63.36 C0 40.97, 0 18.57, 0 0" stroke="#888888" stroke-width="4" fill="none"></path></g><g stroke-linecap="round" transform="translate(213.38080491546498 139.09518596191296) rotate(338.2126576255799 0.04645786459064993 34.44758867355903)"><path d="M0 0 L0.09 0 L0.09 68.9 L0 68.9" stroke="none" stroke-width="0" fill="#888888"></path><path d="M0 0 C0.03 0, 0.06 0, 0.09 0 M0 0 C0.02 0, 0.05 0, 0.09 0 M0.09 0 C0.09 15.4, 0.09 30.79, 0.09 68.9 M0.09 0 C0.09 15.24, 0.09 30.47, 0.09 68.9 M0.09 68.9 C0.06 68.9, 0.02 68.9, 0 68.9 M0.09 68.9 C0.07 68.9, 0.04 68.9, 0 68.9 M0 68.9 C0 45.75, 0 22.6, 0 0 M0 68.9 C0 52.12, 0 35.35, 0 0" stroke="#888888" stroke-width="4" fill="none"></path></g><g stroke-linecap="round" transform="translate(524.8166517215946 231.02182539682536) rotate(0 30 30)"><path d="M60 30 C60 31.74, 59.85 33.5, 59.54 35.21 C59.24 36.92, 58.78 38.63, 58.19 40.26 C57.6 41.89, 56.85 43.5, 55.98 45 C55.11 46.5, 54.1 47.95, 52.98 49.28 C51.87 50.61, 50.61 51.87, 49.28 52.98 C47.95 54.1, 46.5 55.11, 45 55.98 C43.5 56.85, 41.89 57.6, 40.26 58.19 C38.63 58.78, 36.92 59.24, 35.21 59.54 C33.5 59.85, 31.74 60, 30 60 C28.26 60, 26.5 59.85, 24.79 59.54 C23.08 59.24, 21.37 58.78, 19.74 58.19 C18.11 57.6, 16.5 56.85, 15 55.98 C13.5 55.11, 12.05 54.1, 10.72 52.98 C9.39 51.87, 8.13 50.61, 7.02 49.28 C5.9 47.95, 4.89 46.5, 4.02 45 C3.15 43.5, 2.4 41.89, 1.81 40.26 C1.22 38.63, 0.76 36.92, 0.46 35.21 C0.15 33.5, 0 31.74, 0 30 C0 28.26, 0.15 26.5, 0.46 24.79 C0.76 23.08, 1.22 21.37, 1.81 19.74 C2.4 18.11, 3.15 16.5, 4.02 15 C4.89 13.5, 5.9 12.05, 7.02 10.72 C8.13 9.39, 9.39 8.13, 10.72 7.02 C12.05 5.9, 13.5 4.89, 15 4.02 C16.5 3.15, 18.11 2.4, 19.74 1.81 C21.37 1.22, 23.08 0.76, 24.79 0.46 C26.5 0.15, 28.26 0, 30 0 C31.74 0, 33.5 0.15, 35.21 0.46 C36.92 0.76, 38.63 1.22, 40.26 1.81 C41.89 2.4, 43.5 3.15, 45 4.02 C46.5 4.89, 47.95 5.9, 49.28 7.02 C50.61 8.13, 51.87 9.39, 52.98 10.72 C54.1 12.05, 55.11 13.5, 55.98 15 C56.85 16.5, 57.6 18.11, 58.19 19.74 C58.78 21.37, 59.24 23.08, 59.54 24.79 C59.85 26.5, 59.92 29.13, 60 30 C60.08 30.87, 60.08 29.13, 60 30" stroke="none" stroke-width="0" fill="#91989e"></path><path d="M60 30 C60 31.74, 59.85 33.5, 59.54 35.21 C59.24 36.92, 58.78 38.63, 58.19 40.26 C57.6 41.89, 56.85 43.5, 55.98 45 C55.11 46.5, 54.1 47.95, 52.98 49.28 C51.87 50.61, 50.61 51.87, 49.28 52.98 C47.95 54.1, 46.5 55.11, 45 55.98 C43.5 56.85, 41.89 57.6, 40.26 58.19 C38.63 58.78, 36.92 59.24, 35.21 59.54 C33.5 59.85, 31.74 60, 30 60 C28.26 60, 26.5 59.85, 24.79 59.54 C23.08 59.24, 21.37 58.78, 19.74 58.19 C18.11 57.6, 16.5 56.85, 15 55.98 C13.5 55.11, 12.05 54.1, 10.72 52.98 C9.39 51.87, 8.13 50.61, 7.02 49.28 C5.9 47.95, 4.89 46.5, 4.02 45 C3.15 43.5, 2.4 41.89, 1.81 40.26 C1.22 38.63, 0.76 36.92, 0.46 35.21 C0.15 33.5, 0 31.74, 0 30 C0 28.26, 0.15 26.5, 0.46 24.79 C0.76 23.08, 1.22 21.37, 1.81 19.74 C2.4 18.11, 3.15 16.5, 4.02 15 C4.89 13.5, 5.9 12.05, 7.02 10.72 C8.13 9.39, 9.39 8.13, 10.72 7.02 C12.05 5.9, 13.5 4.89, 15 4.02 C16.5 3.15, 18.11 2.4, 19.74 1.81 C21.37 1.22, 23.08 0.76, 24.79 0.46 C26.5 0.15, 28.26 0, 30 0 C31.74 0, 33.5 0.15, 35.21 0.46 C36.92 0.76, 38.63 1.22, 40.26 1.81 C41.89 2.4, 43.5 3.15, 45 4.02 C46.5 4.89, 47.95 5.9, 49.28 7.02 C50.61 8.13, 51.87 9.39, 52.98 10.72 C54.1 12.05, 55.11 13.5, 55.98 15 C56.85 16.5, 57.6 18.11, 58.19 19.74 C58.78 21.37, 59.24 23.08, 59.54 24.79 C59.85 26.5, 59.92 29.13, 60 30 C60.08 30.87, 60.08 29.13, 60 30" stroke="#91989e" stroke-width="1" fill="none"></path></g><g stroke-linecap="round" transform="translate(12.816651721594553 235.02182539682536) rotate(0 30 30)"><path d="M60 30 C60 31.74, 59.85 33.5, 59.54 35.21 C59.24 36.92, 58.78 38.63, 58.19 40.26 C57.6 41.89, 56.85 43.5, 55.98 45 C55.11 46.5, 54.1 47.95, 52.98 49.28 C51.87 50.61, 50.61 51.87, 49.28 52.98 C47.95 54.1, 46.5 55.11, 45 55.98 C43.5 56.85, 41.89 57.6, 40.26 58.19 C38.63 58.78, 36.92 59.24, 35.21 59.54 C33.5 59.85, 31.74 60, 30 60 C28.26 60, 26.5 59.85, 24.79 59.54 C23.08 59.24, 21.37 58.78, 19.74 58.19 C18.11 57.6, 16.5 56.85, 15 55.98 C13.5 55.11, 12.05 54.1, 10.72 52.98 C9.39 51.87, 8.13 50.61, 7.02 49.28 C5.9 47.95, 4.89 46.5, 4.02 45 C3.15 43.5, 2.4 41.89, 1.81 40.26 C1.22 38.63, 0.76 36.92, 0.46 35.21 C0.15 33.5, 0 31.74, 0 30 C0 28.26, 0.15 26.5, 0.46 24.79 C0.76 23.08, 1.22 21.37, 1.81 19.74 C2.4 18.11, 3.15 16.5, 4.02 15 C4.89 13.5, 5.9 12.05, 7.02 10.72 C8.13 9.39, 9.39 8.13, 10.72 7.02 C12.05 5.9, 13.5 4.89, 15 4.02 C16.5 3.15, 18.11 2.4, 19.74 1.81 C21.37 1.22, 23.08 0.76, 24.79 0.46 C26.5 0.15, 28.26 0, 30 0 C31.74 0, 33.5 0.15, 35.21 0.46 C36.92 0.76, 38.63 1.22, 40.26 1.81 C41.89 2.4, 43.5 3.15, 45 4.02 C46.5 4.89, 47.95 5.9, 49.28 7.02 C50.61 8.13, 51.87 9.39, 52.98 10.72 C54.1 12.05, 55.11 13.5, 55.98 15 C56.85 16.5, 57.6 18.11, 58.19 19.74 C58.78 21.37, 59.24 23.08, 59.54 24.79 C59.85 26.5, 59.92 29.13, 60 30 C60.08 30.87, 60.08 29.13, 60 30" stroke="none" stroke-width="0" fill="#162635"></path><path d="M60 30 C60 31.74, 59.85 33.5, 59.54 35.21 C59.24 36.92, 58.78 38.63, 58.19 40.26 C57.6 41.89, 56.85 43.5, 55.98 45 C55.11 46.5, 54.1 47.95, 52.98 49.28 C51.87 50.61, 50.61 51.87, 49.28 52.98 C47.95 54.1, 46.5 55.11, 45 55.98 C43.5 56.85, 41.89 57.6, 40.26 58.19 C38.63 58.78, 36.92 59.24, 35.21 59.54 C33.5 59.85, 31.74 60, 30 60 C28.26 60, 26.5 59.85, 24.79 59.54 C23.08 59.24, 21.37 58.78, 19.74 58.19 C18.11 57.6, 16.5 56.85, 15 55.98 C13.5 55.11, 12.05 54.1, 10.72 52.98 C9.39 51.87, 8.13 50.61, 7.02 49.28 C5.9 47.95, 4.89 46.5, 4.02 45 C3.15 43.5, 2.4 41.89, 1.81 40.26 C1.22 38.63, 0.76 36.92, 0.46 35.21 C0.15 33.5, 0 31.74, 0 30 C0 28.26, 0.15 26.5, 0.46 24.79 C0.76 23.08, 1.22 21.37, 1.81 19.74 C2.4 18.11, 3.15 16.5, 4.02 15 C4.89 13.5, 5.9 12.05, 7.02 10.72 C8.13 9.39, 9.39 8.13, 10.72 7.02 C12.05 5.9, 13.5 4.89, 15 4.02 C16.5 3.15, 18.11 2.4, 19.74 1.81 C21.37 1.22, 23.08 0.76, 24.79 0.46 C26.5 0.15, 28.26 0, 30 0 C31.74 0, 33.5 0.15, 35.21 0.46 C36.92 0.76, 38.63 1.22, 40.26 1.81 C41.89 2.4, 43.5 3.15, 45 4.02 C46.5 4.89, 47.95 5.9, 49.28 7.02 C50.61 8.13, 51.87 9.39, 52.98 10.72 C54.1 12.05, 55.11 13.5, 55.98 15 C56.85 16.5, 57.6 18.11, 58.19 19.74 C58.78 21.37, 59.24 23.08, 59.54 24.79 C59.85 26.5, 59.92 29.13, 60 30 C60.08 30.87, 60.08 29.13, 60 30" stroke="#162635" stroke-width="1" fill="none"></path></g><g stroke-linecap="round" transform="translate(370.81665172159455 136.02182539682536) rotate(0 13.5 13)"><path d="M27 13 C27 13.75, 26.93 14.52, 26.79 15.26 C26.66 16, 26.45 16.74, 26.19 17.45 C25.92 18.15, 25.58 18.85, 25.19 19.5 C24.8 20.15, 24.34 20.78, 23.84 21.36 C23.34 21.93, 22.78 22.47, 22.18 22.96 C21.58 23.44, 20.93 23.88, 20.25 24.26 C19.57 24.63, 18.85 24.96, 18.12 25.22 C17.38 25.47, 16.61 25.67, 15.84 25.8 C15.07 25.93, 14.28 26, 13.5 26 C12.72 26, 11.93 25.93, 11.16 25.8 C10.39 25.67, 9.62 25.47, 8.88 25.22 C8.15 24.96, 7.43 24.63, 6.75 24.26 C6.07 23.88, 5.42 23.44, 4.82 22.96 C4.22 22.47, 3.66 21.93, 3.16 21.36 C2.66 20.78, 2.2 20.15, 1.81 19.5 C1.42 18.85, 1.08 18.15, 0.81 17.45 C0.55 16.74, 0.34 16, 0.21 15.26 C0.07 14.52, 0 13.75, 0 13 C0 12.25, 0.07 11.48, 0.21 10.74 C0.34 10, 0.55 9.26, 0.81 8.55 C1.08 7.85, 1.42 7.15, 1.81 6.5 C2.2 5.85, 2.66 5.22, 3.16 4.64 C3.66 4.07, 4.22 3.53, 4.82 3.04 C5.42 2.56, 6.07 2.12, 6.75 1.74 C7.43 1.37, 8.15 1.04, 8.88 0.78 C9.62 0.53, 10.39 0.33, 11.16 0.2 C11.93 0.07, 12.72 0, 13.5 0 C14.28 0, 15.07 0.07, 15.84 0.2 C16.61 0.33, 17.38 0.53, 18.12 0.78 C18.85 1.04, 19.57 1.37, 20.25 1.74 C20.93 2.12, 21.58 2.56, 22.18 3.04 C22.78 3.53, 23.34 4.07, 23.84 4.64 C24.34 5.22, 24.8 5.85, 25.19 6.5 C25.58 7.15, 25.92 7.85, 26.19 8.55 C26.45 9.26, 26.66 10, 26.79 10.74 C26.93 11.48, 26.97 12.62, 27 13 C27.03 13.38, 27.03 12.62, 27 13" stroke="none" stroke-width="0" fill="#5a656f"></path><path d="M27 13 C27 13.75, 26.93 14.52, 26.79 15.26 C26.66 16, 26.45 16.74, 26.19 17.45 C25.92 18.15, 25.58 18.85, 25.19 19.5 C24.8 20.15, 24.34 20.78, 23.84 21.36 C23.34 21.93, 22.78 22.47, 22.18 22.96 C21.58 23.44, 20.93 23.88, 20.25 24.26 C19.57 24.63, 18.85 24.96, 18.12 25.22 C17.38 25.47, 16.61 25.67, 15.84 25.8 C15.07 25.93, 14.28 26, 13.5 26 C12.72 26, 11.93 25.93, 11.16 25.8 C10.39 25.67, 9.62 25.47, 8.88 25.22 C8.15 24.96, 7.43 24.63, 6.75 24.26 C6.07 23.88, 5.42 23.44, 4.82 22.96 C4.22 22.47, 3.66 21.93, 3.16 21.36 C2.66 20.78, 2.2 20.15, 1.81 19.5 C1.42 18.85, 1.08 18.15, 0.81 17.45 C0.55 16.74, 0.34 16, 0.21 15.26 C0.07 14.52, 0 13.75, 0 13 C0 12.25, 0.07 11.48, 0.21 10.74 C0.34 10, 0.55 9.26, 0.81 8.55 C1.08 7.85, 1.42 7.15, 1.81 6.5 C2.2 5.85, 2.66 5.22, 3.16 4.64 C3.66 4.07, 4.22 3.53, 4.82 3.04 C5.42 2.56, 6.07 2.12, 6.75 1.74 C7.43 1.37, 8.15 1.04, 8.88 0.78 C9.62 0.53, 10.39 0.33, 11.16 0.2 C11.93 0.07, 12.72 0, 13.5 0 C14.28 0, 15.07 0.07, 15.84 0.2 C16.61 0.33, 17.38 0.53, 18.12 0.78 C18.85 1.04, 19.57 1.37, 20.25 1.74 C20.93 2.12, 21.58 2.56, 22.18 3.04 C22.78 3.53, 23.34 4.07, 23.84 4.64 C24.34 5.22, 24.8 5.85, 25.19 6.5 C25.58 7.15, 25.92 7.85, 26.19 8.55 C26.45 9.26, 26.66 10, 26.79 10.74 C26.93 11.48, 26.97 12.62, 27 13 C27.03 13.38, 27.03 12.62, 27 13" stroke="#5a656f" stroke-width="1" fill="none"></path></g><g stroke-linecap="round" transform="translate(84.81665172159455 481.0218253968253) rotate(0 47 46)"><path d="M94 46 C94 48.18, 93.84 50.39, 93.52 52.55 C93.2 54.71, 92.72 56.87, 92.1 58.96 C91.47 61.05, 90.68 63.12, 89.75 65.11 C88.83 67.09, 87.74 69.03, 86.54 70.87 C85.33 72.71, 83.98 74.47, 82.52 76.12 C81.06 77.77, 79.46 79.34, 77.78 80.76 C76.09 82.19, 74.29 83.52, 72.41 84.7 C70.53 85.88, 68.55 86.94, 66.52 87.84 C64.5 88.75, 62.38 89.52, 60.24 90.14 C58.1 90.75, 55.9 91.22, 53.69 91.53 C51.48 91.84, 49.23 92, 47 92 C44.77 92, 42.52 91.84, 40.31 91.53 C38.1 91.22, 35.9 90.75, 33.76 90.14 C31.62 89.52, 29.5 88.75, 27.48 87.84 C25.45 86.94, 23.47 85.88, 21.59 84.7 C19.71 83.52, 17.91 82.19, 16.22 80.76 C14.54 79.34, 12.94 77.77, 11.48 76.12 C10.02 74.47, 8.67 72.71, 7.46 70.87 C6.26 69.03, 5.17 67.09, 4.25 65.11 C3.32 63.12, 2.53 61.05, 1.9 58.96 C1.28 56.87, 0.8 54.71, 0.48 52.55 C0.16 50.39, 0 48.18, 0 46 C0 43.82, 0.16 41.61, 0.48 39.45 C0.8 37.29, 1.28 35.13, 1.9 33.04 C2.53 30.95, 3.32 28.88, 4.25 26.89 C5.17 24.91, 6.26 22.97, 7.46 21.13 C8.67 19.29, 10.02 17.53, 11.48 15.88 C12.94 14.23, 14.54 12.66, 16.22 11.24 C17.91 9.81, 19.71 8.48, 21.59 7.3 C23.47 6.12, 25.45 5.06, 27.48 4.16 C29.5 3.25, 31.62 2.48, 33.76 1.86 C35.9 1.25, 38.1 0.78, 40.31 0.47 C42.52 0.16, 44.77 0, 47 0 C49.23 0, 51.48 0.16, 53.69 0.47 C55.9 0.78, 58.1 1.25, 60.24 1.86 C62.38 2.48, 64.5 3.25, 66.52 4.16 C68.55 5.06, 70.53 6.12, 72.41 7.3 C74.29 8.48, 76.09 9.81, 77.78 11.24 C79.46 12.66, 81.06 14.23, 82.52 15.88 C83.98 17.53, 85.33 19.29, 86.54 21.13 C87.74 22.97, 88.83 24.91, 89.75 26.89 C90.68 28.88, 91.47 30.95, 92.1 33.04 C92.72 35.13, 93.2 37.29, 93.52 39.45 C93.84 41.61, 93.92 44.91, 94 46 C94.08 47.09, 94.08 44.91, 94 46" stroke="none" stroke-width="0" fill="#91989e"></path><path d="M94 46 C94 48.18, 93.84 50.39, 93.52 52.55 C93.2 54.71, 92.72 56.87, 92.1 58.96 C91.47 61.05, 90.68 63.12, 89.75 65.11 C88.83 67.09, 87.74 69.03, 86.54 70.87 C85.33 72.71, 83.98 74.47, 82.52 76.12 C81.06 77.77, 79.46 79.34, 77.78 80.76 C76.09 82.19, 74.29 83.52, 72.41 84.7 C70.53 85.88, 68.55 86.94, 66.52 87.84 C64.5 88.75, 62.38 89.52, 60.24 90.14 C58.1 90.75, 55.9 91.22, 53.69 91.53 C51.48 91.84, 49.23 92, 47 92 C44.77 92, 42.52 91.84, 40.31 91.53 C38.1 91.22, 35.9 90.75, 33.76 90.14 C31.62 89.52, 29.5 88.75, 27.48 87.84 C25.45 86.94, 23.47 85.88, 21.59 84.7 C19.71 83.52, 17.91 82.19, 16.22 80.76 C14.54 79.34, 12.94 77.77, 11.48 76.12 C10.02 74.47, 8.67 72.71, 7.46 70.87 C6.26 69.03, 5.17 67.09, 4.25 65.11 C3.32 63.12, 2.53 61.05, 1.9 58.96 C1.28 56.87, 0.8 54.71, 0.48 52.55 C0.16 50.39, 0 48.18, 0 46 C0 43.82, 0.16 41.61, 0.48 39.45 C0.8 37.29, 1.28 35.13, 1.9 33.04 C2.53 30.95, 3.32 28.88, 4.25 26.89 C5.17 24.91, 6.26 22.97, 7.46 21.13 C8.67 19.29, 10.02 17.53, 11.48 15.88 C12.94 14.23, 14.54 12.66, 16.22 11.24 C17.91 9.81, 19.71 8.48, 21.59 7.3 C23.47 6.12, 25.45 5.06, 27.48 4.16 C29.5 3.25, 31.62 2.48, 33.76 1.86 C35.9 1.25, 38.1 0.78, 40.31 0.47 C42.52 0.16, 44.77 0, 47 0 C49.23 0, 51.48 0.16, 53.69 0.47 C55.9 0.78, 58.1 1.25, 60.24 1.86 C62.38 2.48, 64.5 3.25, 66.52 4.16 C68.55 5.06, 70.53 6.12, 72.41 7.3 C74.29 8.48, 76.09 9.81, 77.78 11.24 C79.46 12.66, 81.06 14.23, 82.52 15.88 C83.98 17.53, 85.33 19.29, 86.54 21.13 C87.74 22.97, 88.83 24.91, 89.75 26.89 C90.68 28.88, 91.47 30.95, 92.1 33.04 C92.72 35.13, 93.2 37.29, 93.52 39.45 C93.84 41.61, 93.92 44.91, 94 46 C94.08 47.09, 94.08 44.91, 94 46" stroke="#91989e" stroke-width="1" fill="none"></path></g></svg>