<svg xmlns="http://www.w3.org/2000/svg" version="1.1" xmlns:xlink="http://www.w3.org/1999/xlink" width="1000" height="1000"><g clip-path="url(#SvgjsClipPath1055)"><rect width="1000" height="1000" fill="#ffffff"></rect><g transform="matrix(6.666666666666667,0,0,6.666666666666667,0,0)"><svg xmlns="http://www.w3.org/2000/svg" version="1.1" xmlns:xlink="http://www.w3.org/1999/xlink" width="150" height="150"><svg xmlns:dc="http://purl.org/dc/elements/1.1/" xmlns:cc="http://creativecommons.org/ns#" xmlns:rdf="http://www.w3.org/1999/02/22-rdf-syntax-ns#" xmlns:svg="http://www.w3.org/2000/svg" xmlns="http://www.w3.org/2000/svg" xmlns:sodipodi="http://sodipodi.sourceforge.net/DTD/sodipodi-0.dtd" xmlns:inkscape="http://www.inkscape.org/namespaces/inkscape" inkscape:export-ydpi="300" inkscape:export-xdpi="300" inkscape:export-filename="/home/juliencervelle/Downloads/lacl_carré.png" sodipodi:docname="lacl_carré.svg" height="150" width="150" inkscape:version="1.0 (4035a4f, 2020-05-01)" version="1.1" id="svg2">
  <metadata id="metadata8">
    <rdf:rdf>
      <cc:work rdf:about="">
        <dc:format>image/svg+xml</dc:format>
        <dc:type rdf:resource="http://purl.org/dc/dcmitype/StillImage"></dc:type>
        <dc:title></dc:title>
      </cc:work>
    </rdf:rdf>
  </metadata>
  <defs id="defs6">
    <inkscape:perspective id="perspective7" inkscape:persp3d-origin="74.938248 : 99.333333 : 1" inkscape:vp_z="149.8765 : 112 : 1" inkscape:vp_y="0 : 1000 : 0" inkscape:vp_x="0 : 112 : 1" sodipodi:type="inkscape:persp3d"></inkscape:perspective>
    <inkscape:perspective sodipodi:type="inkscape:persp3d" inkscape:vp_x="0 : 74.5 : 1" inkscape:vp_y="0 : 1000 : 0" inkscape:vp_z="1 : 74.5 : 1" inkscape:persp3d-origin="0.5 : 74.333333 : 1" id="perspective3706"></inkscape:perspective>
    <inkscape:perspective sodipodi:type="inkscape:persp3d" inkscape:vp_x="0 : 74.5 : 1" inkscape:vp_y="0 : 1000 : 0" inkscape:vp_z="1 : 74.5 : 1" inkscape:persp3d-origin="0.5 : 74.333333 : 1" id="perspective3733"></inkscape:perspective>
  <clipPath id="SvgjsClipPath1055"><rect width="1000" height="1000" x="0" y="0" rx="500" ry="500"></rect></clipPath></defs>
  <sodipodi:namedview inkscape:document-rotation="0" inkscape:current-layer="svg2" inkscape:window-maximized="1" inkscape:window-y="0" inkscape:window-x="0" inkscape:cy="75.026088" inkscape:cx="-23.300127" inkscape:zoom="2.99375" fit-margin-bottom="0" fit-margin-right="0" fit-margin-left="0" fit-margin-top="0" showgrid="false" id="namedview4" inkscape:window-height="832" inkscape:window-width="1488" inkscape:pageshadow="2" inkscape:pageopacity="0" guidetolerance="10" gridtolerance="10" objecttolerance="10" borderopacity="1" bordercolor="#666666" pagecolor="#ffffff"></sodipodi:namedview>
  <rect y="0" x="0" height="150" width="150" id="rect2813" style="fill:#0065bd;fill-opacity:1;stroke:none;stroke-width:1.40506;stroke-linecap:round;stroke-linejoin:round;stroke-miterlimit:4;stroke-dasharray:none;stroke-opacity:1"></rect>
  <path sodipodi:nodetypes="cscccssscs" id="path3654" d="m 64.401914,60.365732 c 0.702836,-1.754842 9.523099,-0.659298 10.557865,0.375468 0.69135,0.69135 0.96,6.140353 0.96,19.471588 v 18.511588 l 2,0.911261 c 3.021052,1.376483 2.580853,3.345563 -0.74792,3.345563 -3.303368,0 -6.134002,-0.99621 -7.927937,-2.79014 -1.149664,-1.149666 -1.324143,-3.57931 -1.324143,-18.438856 0,-16.295946 -0.241883,-17.557664 -0.241883,-17.557664 0,0 -3.900487,-2.269543 -3.275982,-3.828808 z" style="fill:#ffffff;fill-opacity:1"></path>
  <path id="path3652" d="M 100.28235,101.97912 C 91.223381,98.488725 86.299141,91.264439 86.337349,81.520602 c 0.03031,-7.729584 4.570048,-15.057087 11.558909,-18.657012 3.724572,-1.918507 11.879192,-2.743256 15.023532,-1.519463 1.89376,0.73706 2.2,1.304452 2.2,4.076052 0,2.653835 -0.27295,3.219801 -1.55279,3.219801 -0.85403,0 -1.77528,-0.36 -2.04721,-0.8 -0.81929,-1.325642 -5.28078,-0.903626 -8.88319,0.840269 -13.528498,6.549031 -10.231451,26.412084 4.72438,28.462008 2.98581,0.409252 4.11316,0.225019 5.32303,-0.869901 1.87033,-1.692623 3.23578,-1.011186 3.23578,1.614838 0,3.551006 -2.59142,5.160196 -8.2,5.091926 -2.75,-0.0335 -6.09685,-0.48348 -7.43744,-1 z" style="fill:#ffffff;fill-opacity:1"></path>
  <path sodipodi:nodetypes="csccccscccc" id="path2987" d="m 127.37084,101.46885 c -1.40192,-0.85481 -2.93192,-2.269798 -3.4,-3.144416 -0.54803,-1.024016 -0.85105,-10.275933 -0.85105,-25.984744 V 47.94516 l -2.09076,-1.644592 c -3.56967,-2.807898 -2.06079,-4.185822 4.27977,-3.908339 0,0 4.40172,0.207202 4.9386,1.772066 1.0519,3.066014 0.68283,25.814887 0.68283,25.814887 l 0.21044,27.350152 2.08032,1.636377 c 4.39244,3.455089 -0.70904,5.637889 -5.85015,2.503139 z" style="fill:#ffffff;fill-opacity:1"></path>
  <path sodipodi:nodetypes="cssscssssssssc" style="fill:#ffffff;fill-opacity:1" d="M 48.719779,101.3335 C 39.197998,97.023328 34.153423,86.283739 37.019582,76.424499 39.960121,66.309399 48.14501,60.327663 58.468581,60.748995 c 2.941841,0.120064 4.573139,0.861488 4.764231,1.136898 0.756067,1.089681 1.524135,2.085676 1.486967,3.884189 0,2.266149 -0.308563,2.828147 -1.552786,2.828147 -0.854033,0 -1.775279,-0.36 -2.047214,-0.8 -0.807681,-1.306857 -5.041916,-0.913166 -8.354489,0.776782 -11.995372,6.119582 -11.29256,22.912167 1.157935,27.667054 3.326028,1.270222 4.727793,1.258038 10.196554,-0.08862 1.888672,-0.465078 2.2,-0.296977 2.2,1.187885 0,0.951294 -0.883636,2.613262 -1.963636,3.69326 -1.674118,1.67412 -2.706197,1.96105 -7,1.94607 -3.323416,-0.0116 -6.260781,-0.57182 -8.636364,-1.64716 z" id="path4254"></path>
  <path style="fill:#ffffff;fill-opacity:1" d="m 22.618654,101.46885 c -1.40192,-0.85481 -2.93192,-2.269798 -3.4,-3.144416 -0.54803,-1.024016 -0.85105,-10.275933 -0.85105,-25.984744 V 47.94516 l -2.09076,-1.644592 c -3.56967,-2.807897 -2.06079,-4.185822 4.27977,-3.908338 0,0 4.40172,0.207201 4.9386,1.772065 1.0519,3.066014 0.68283,25.814887 0.68283,25.814887 l 0.21044,27.350152 2.08032,1.636377 c 4.39244,3.455089 -0.70904,5.637889 -5.85015,2.503139 z" id="path3657" sodipodi:nodetypes="csccccscccc"></path>
</svg></svg></g></g></svg>